<svg width="365" height="236" viewBox="0 0 365 236" fill="none" xmlns="http://www.w3.org/2000/svg">
<rect x="6" y="36" width="352" height="200" rx="60" fill="#F4F4F4"/>
<path d="M148.963 104.65C146.956 99.8731 142.883 94.7157 139.693 93.0854C141.968 97.4398 143.546 102.116 144.373 106.948L144.381 107.025C139.157 94.1522 130.301 88.9536 123.063 77.6487C122.697 77.077 122.331 76.5041 121.975 75.8993C121.771 75.5539 121.608 75.2427 121.466 74.9563C121.166 74.3817 120.934 73.7744 120.777 73.1468C120.777 73.1178 120.766 73.0898 120.747 73.068C120.728 73.0463 120.701 73.0324 120.672 73.0289C120.643 73.0212 120.613 73.0212 120.585 73.0289C120.579 73.0289 120.569 73.0395 120.562 73.0419C120.555 73.0442 120.539 73.0548 120.529 73.0595L120.546 73.0289C108.94 79.7482 104.999 92.1848 104.641 98.409C100.005 98.7233 95.5712 100.412 91.9198 103.255C91.539 102.936 91.141 102.638 90.7275 102.362C89.6747 98.7177 89.6298 94.8614 90.5976 91.1946C86.335 93.236 82.5475 96.1302 79.4747 99.6939H79.4533C77.6219 97.3987 77.7507 89.8307 77.8556 88.2499C77.3138 88.4651 76.7967 88.7366 76.3128 89.0597C74.6961 90.2005 73.1848 91.4806 71.7964 92.885C70.2144 94.4709 68.7695 96.185 67.4768 98.0093V98.0164V98.0082C64.5063 102.171 62.3991 106.875 61.2769 111.848L61.2149 112.149C61.1279 112.551 60.8143 114.565 60.7607 115.002C60.7607 115.036 60.7535 115.068 60.7499 115.102C60.3455 117.181 60.0948 119.286 60 121.401V121.636C60.0204 133.069 64.3752 144.079 72.2046 152.493C80.0341 160.906 90.7692 166.112 102.291 167.082C113.813 168.052 125.284 164.717 134.439 157.734C143.595 150.75 149.77 140.627 151.746 129.362C151.824 128.773 151.887 128.19 151.956 127.594C152.908 119.816 151.877 111.926 148.959 104.643L148.963 104.65ZM95.7041 140.415C95.9199 140.518 96.1226 140.629 96.3444 140.726L96.3765 140.746C96.1524 140.64 95.9282 140.53 95.7041 140.415V140.415ZM144.383 107.038V106.994L144.391 107.043L144.383 107.038Z" fill="url(#paint0_linear_1_2)"/>
<path d="M148.963 104.649C146.955 99.8723 142.882 94.715 139.693 93.0847C141.967 97.4391 143.546 102.116 144.373 106.948V106.991L144.381 107.04C147.943 117.117 147.428 128.167 142.943 137.878C137.647 149.113 124.832 160.629 104.766 160.063C83.0906 159.456 63.9903 143.548 60.4254 122.718C59.7756 119.433 60.4254 117.767 60.752 115.097C60.3064 117.171 60.0577 119.281 60.0092 121.401V121.637C60.0297 133.07 64.3844 144.08 72.2139 152.493C80.0433 160.907 90.7785 166.112 102.3 167.083C113.822 168.053 125.293 164.717 134.449 157.734C143.604 150.751 149.78 140.628 151.755 129.363C151.833 128.774 151.896 128.19 151.965 127.595C152.917 119.817 151.887 111.927 148.968 104.643L148.963 104.649Z" fill="url(#paint1_radial_1_2)"/>
<path d="M148.963 104.649C146.955 99.8723 142.882 94.715 139.693 93.0847C141.967 97.4391 143.546 102.116 144.373 106.948V106.991L144.381 107.04C147.943 117.117 147.428 128.167 142.943 137.878C137.647 149.113 124.832 160.629 104.766 160.063C83.0906 159.456 63.9903 143.548 60.4254 122.718C59.7756 119.433 60.4254 117.767 60.752 115.097C60.3064 117.171 60.0577 119.281 60.0092 121.401V121.637C60.0297 133.07 64.3844 144.08 72.2139 152.493C80.0433 160.907 90.7785 166.112 102.3 167.083C113.822 168.053 125.293 164.717 134.449 157.734C143.604 150.751 149.78 140.628 151.755 129.363C151.833 128.774 151.896 128.19 151.965 127.595C152.917 119.817 151.887 111.927 148.968 104.643L148.963 104.649Z" fill="url(#paint2_radial_1_2)"/>
<path d="M126.501 110.013C126.601 110.082 126.694 110.152 126.788 110.221C125.627 108.186 124.182 106.323 122.496 104.687C108.129 90.4818 118.732 73.8958 120.519 73.0471L120.537 73.0211C108.93 79.7404 104.99 92.177 104.632 98.4012C105.171 98.3646 105.705 98.3198 106.256 98.3198C110.374 98.3277 114.416 99.4135 117.972 101.467C121.528 103.52 124.471 106.468 126.501 110.01V110.013Z" fill="url(#paint3_radial_1_2)"/>
<path d="M106.28 112.854C106.203 113.99 102.142 117.91 100.722 117.91C87.5834 117.91 85.4492 125.769 85.4492 125.769C86.031 132.387 90.6952 137.84 96.3335 140.716C96.5911 140.848 96.8522 140.967 97.1133 141.084C97.5656 141.282 98.0178 141.465 98.4701 141.633C100.405 142.31 102.432 142.697 104.483 142.78C127.518 143.848 131.977 115.55 115.355 107.333C119.276 106.829 123.247 107.782 126.497 110.008C124.467 106.466 121.524 103.518 117.968 101.465C114.413 99.4112 110.37 98.3254 106.252 98.3175C105.704 98.3175 105.167 98.3623 104.628 98.3988C99.9914 98.7131 95.558 100.402 91.9066 103.245C92.6112 103.834 93.4065 104.622 95.0816 106.255C98.2173 109.309 106.259 112.473 106.277 112.844L106.28 112.854Z" fill="url(#paint4_radial_1_2)"/>
<path d="M106.28 112.854C106.203 113.99 102.142 117.91 100.722 117.91C87.5834 117.91 85.4492 125.769 85.4492 125.769C86.031 132.387 90.6952 137.84 96.3335 140.716C96.5911 140.848 96.8522 140.967 97.1133 141.084C97.5656 141.282 98.0178 141.465 98.4701 141.633C100.405 142.31 102.432 142.697 104.483 142.78C127.518 143.848 131.977 115.55 115.355 107.333C119.276 106.829 123.247 107.782 126.497 110.008C124.467 106.466 121.524 103.518 117.968 101.465C114.413 99.4112 110.37 98.3254 106.252 98.3175C105.704 98.3175 105.167 98.3623 104.628 98.3988C99.9914 98.7131 95.558 100.402 91.9066 103.245C92.6112 103.834 93.4065 104.622 95.0816 106.255C98.2173 109.309 106.259 112.473 106.277 112.844L106.28 112.854Z" fill="url(#paint5_radial_1_2)"/>
<path d="M89.7545 101.737C90.1289 101.973 90.4377 102.178 90.7083 102.363C89.6555 98.7194 89.6107 94.863 90.5784 91.1962C86.3158 93.2377 82.5283 96.1319 79.4556 99.6955C79.6809 99.6896 86.3839 99.5706 89.7545 101.737V101.737Z" fill="url(#paint6_radial_1_2)"/>
<path d="M60.4172 122.72C63.9833 143.55 83.0825 159.464 104.758 160.065C124.824 160.627 137.641 149.109 142.935 137.88C147.42 128.169 147.935 117.12 144.373 107.042V106.998C144.373 106.964 144.366 106.944 144.373 106.955L144.381 107.031C146.021 117.614 140.577 127.861 132.065 134.804L132.039 134.863C115.454 148.219 99.5849 142.919 96.3776 140.757C96.1535 140.651 95.9293 140.541 95.7052 140.426C86.037 135.857 82.0416 127.153 82.9001 119.679C80.6051 119.712 78.3495 119.087 76.4066 117.879C74.4637 116.671 72.917 114.931 71.9537 112.871C74.4919 111.334 77.3859 110.465 80.36 110.347C83.3341 110.229 86.2892 110.866 88.9438 112.197C94.4155 114.653 100.642 114.895 106.291 112.871C106.274 112.5 98.2316 109.335 95.0959 106.282C93.4208 104.649 92.6255 103.863 91.9209 103.272C91.5401 102.953 91.1421 102.655 90.7286 102.379C90.4544 102.193 90.1456 101.993 89.7748 101.753C86.4042 99.5859 79.7012 99.705 79.4794 99.7109H79.458C77.6266 97.4157 77.7554 89.8476 77.8603 88.2668C77.3185 88.4821 76.8014 88.7536 76.3175 89.0767C74.7008 90.2175 73.1894 91.4976 71.8011 92.902C70.2134 94.4834 68.7625 96.1936 67.4636 98.0145V98.0216V98.0134C64.4931 102.177 62.3859 106.88 61.2637 111.853C61.2411 111.946 59.5993 119.042 60.4089 122.723L60.4172 122.72Z" fill="url(#paint7_radial_1_2)"/>
<path d="M122.495 104.684C124.182 106.323 125.627 108.188 126.787 110.225C127.041 110.415 127.278 110.603 127.48 110.786C137.956 120.334 132.467 133.832 132.058 134.787C140.568 127.854 146.008 117.599 144.374 107.014C139.147 94.1291 130.281 88.9305 123.056 77.6256C122.69 77.0539 122.324 76.481 121.968 75.8762C121.764 75.5308 121.6 75.2196 121.458 74.9332C121.158 74.3586 120.927 73.7513 120.769 73.1237C120.77 73.0947 120.759 73.0667 120.74 73.0449C120.72 73.0232 120.694 73.0093 120.664 73.0058C120.636 72.9981 120.606 72.9981 120.577 73.0058C120.571 73.0058 120.562 73.0164 120.555 73.0188C120.548 73.0211 120.532 73.0317 120.521 73.0364C118.734 73.8746 108.134 90.4712 122.501 104.664L122.495 104.684Z" fill="url(#paint8_radial_1_2)"/>
<path d="M127.478 110.791C127.277 110.608 127.04 110.419 126.786 110.229C126.691 110.16 126.598 110.09 126.498 110.021C123.248 107.795 119.277 106.842 115.356 107.346C131.977 115.562 127.518 143.854 104.484 142.793C102.433 142.71 100.406 142.323 98.4713 141.646C98.019 141.479 97.5667 141.296 97.1145 141.097C96.8534 140.979 96.5922 140.861 96.3347 140.729L96.3669 140.749C99.5789 142.917 115.443 148.214 132.028 134.855L132.054 134.796C132.468 133.841 137.957 120.344 127.476 110.795L127.478 110.791Z" fill="url(#paint9_radial_1_2)"/>
<path d="M85.4504 125.762C85.4504 125.762 87.5834 117.902 100.724 117.902C102.144 117.902 106.208 113.983 106.281 112.846C100.631 114.87 94.4048 114.628 88.9331 112.172C86.2785 110.841 83.3233 110.204 80.3492 110.322C77.3751 110.44 74.4812 111.309 71.943 112.846C72.9063 114.906 74.453 116.646 76.3959 117.854C78.3388 119.062 80.5944 119.688 82.8894 119.654C82.0333 127.124 86.0275 135.828 95.6945 140.401C95.9103 140.504 96.113 140.615 96.3347 140.713C90.6917 137.83 86.0322 132.38 85.4504 125.765V125.762Z" fill="url(#paint10_radial_1_2)"/>
<path d="M148.963 104.65C146.956 99.8731 142.883 94.7157 139.693 93.0854C141.968 97.4399 143.546 102.116 144.373 106.948L144.381 107.025C139.157 94.1522 130.301 88.9536 123.063 77.6487C122.697 77.077 122.331 76.5041 121.975 75.8993C121.771 75.5539 121.608 75.2427 121.466 74.9563C121.166 74.3817 120.934 73.7744 120.777 73.1468C120.777 73.1178 120.766 73.0898 120.747 73.068C120.728 73.0463 120.701 73.0324 120.672 73.0289C120.643 73.0212 120.613 73.0212 120.585 73.0289C120.579 73.0289 120.569 73.0395 120.562 73.0419C120.555 73.0442 120.539 73.0548 120.529 73.0595L120.547 73.0289C108.94 79.7482 104.999 92.1848 104.642 98.409C105.18 98.3724 105.715 98.3276 106.265 98.3276C110.383 98.3355 114.426 99.4213 117.982 101.475C121.538 103.528 124.48 106.476 126.51 110.018C123.26 107.792 119.289 106.839 115.368 107.343C131.989 115.56 127.53 143.851 104.496 142.79C102.445 142.707 100.418 142.321 98.4834 141.643C98.0311 141.476 97.5788 141.293 97.1265 141.094C96.8654 140.976 96.6043 140.858 96.3468 140.726L96.379 140.746C96.1548 140.64 95.9307 140.53 95.7065 140.415C95.9223 140.518 96.125 140.629 96.3468 140.726C90.7037 137.843 86.0443 132.392 85.4624 125.779C85.4624 125.779 87.5954 117.92 100.736 117.92C102.156 117.92 106.22 114 106.293 112.864C106.275 112.492 98.233 109.327 95.0973 106.274C93.4221 104.641 92.6269 103.855 91.9222 103.265C91.5414 102.946 91.1434 102.647 90.7299 102.371C89.6772 98.7272 89.6323 94.8708 90.6 91.204C86.3374 93.2455 82.5499 96.1397 79.4772 99.7033H79.4557C77.6244 97.4081 77.7531 89.8401 77.8581 88.2593C77.3163 88.4746 76.7991 88.746 76.3153 89.0691C74.6986 90.2099 73.1872 91.49 71.7989 92.8944C70.2168 94.4803 68.7719 96.1944 67.4792 98.0188V98.0258V98.0176C64.5087 102.181 62.4015 106.884 61.2794 111.857L61.2174 112.159C61.1303 112.561 60.7405 114.602 60.6844 115.041C60.3278 117.149 60.1001 119.275 60.0024 121.41V121.646C60.0229 133.079 64.3776 144.089 72.2071 152.502C80.0365 160.916 90.7717 166.121 102.293 167.092C113.815 168.062 125.286 164.726 134.442 157.743C143.598 150.76 149.773 140.637 151.749 129.372C151.826 128.783 151.889 128.199 151.958 127.604C152.91 119.826 151.88 111.936 148.961 104.652L148.963 104.65ZM144.379 106.997L144.387 107.045L144.379 106.997Z" fill="url(#paint11_linear_1_2)"/>
<path d="M77.5438 195V182.2H85.7438V184.144H79.8625V187.619H85.1813V189.562H79.8625V195H77.5438ZM87.7563 195V185.4H90.0188V195H87.7563ZM88.8938 184.037C88.5354 184.037 88.2271 183.919 87.9688 183.681C87.7104 183.44 87.5813 183.15 87.5813 182.812C87.5813 182.471 87.7104 182.181 87.9688 181.944C88.2271 181.702 88.5354 181.581 88.8938 181.581C89.2563 181.581 89.5646 181.702 89.8188 181.944C90.0771 182.181 90.2063 182.471 90.2063 182.812C90.2063 183.15 90.0771 183.44 89.8188 183.681C89.5646 183.919 89.2563 184.037 88.8938 184.037ZM92.3453 195V185.4H94.5391V187H94.6391C94.8141 186.446 95.1141 186.019 95.5391 185.719C95.9682 185.415 96.4578 185.262 97.0078 185.262C97.1328 185.262 97.2724 185.269 97.4266 185.281C97.5849 185.29 97.7161 185.304 97.8203 185.325V187.406C97.7245 187.373 97.5724 187.344 97.3641 187.319C97.1599 187.29 96.962 187.275 96.7703 187.275C96.3578 187.275 95.987 187.365 95.6578 187.544C95.3328 187.719 95.0766 187.962 94.8891 188.275C94.7016 188.587 94.6078 188.948 94.6078 189.356V195H92.3453ZM103.178 195.188C102.216 195.188 101.384 194.988 100.684 194.587C99.9885 194.183 99.4531 193.612 99.0781 192.875C98.7031 192.133 98.5156 191.26 98.5156 190.256C98.5156 189.269 98.7031 188.402 99.0781 187.656C99.4573 186.906 99.9865 186.323 100.666 185.906C101.345 185.485 102.143 185.275 103.059 185.275C103.651 185.275 104.209 185.371 104.734 185.562C105.264 185.75 105.73 186.042 106.134 186.437C106.543 186.833 106.864 187.337 107.097 187.95C107.33 188.558 107.447 189.283 107.447 190.125V190.819H99.5781V189.294H105.278C105.274 188.86 105.18 188.475 104.997 188.137C104.814 187.796 104.557 187.527 104.228 187.331C103.903 187.135 103.524 187.037 103.091 187.037C102.628 187.037 102.222 187.15 101.872 187.375C101.522 187.596 101.249 187.887 101.053 188.25C100.861 188.608 100.764 189.002 100.759 189.431V190.762C100.759 191.321 100.861 191.8 101.066 192.2C101.27 192.596 101.555 192.9 101.922 193.112C102.289 193.321 102.718 193.425 103.209 193.425C103.539 193.425 103.836 193.379 104.103 193.287C104.37 193.192 104.601 193.052 104.797 192.869C104.993 192.685 105.141 192.458 105.241 192.187L107.353 192.425C107.22 192.983 106.966 193.471 106.591 193.887C106.22 194.3 105.745 194.621 105.166 194.85C104.586 195.075 103.924 195.188 103.178 195.188ZM114.223 185.4V187.15H108.548V185.4H114.223ZM109.967 195V184.494C109.967 183.848 110.101 183.31 110.367 182.881C110.638 182.452 111.001 182.131 111.455 181.919C111.909 181.706 112.413 181.6 112.967 181.6C113.359 181.6 113.707 181.631 114.011 181.694C114.315 181.756 114.54 181.812 114.686 181.862L114.236 183.612C114.14 183.583 114.019 183.554 113.873 183.525C113.728 183.492 113.565 183.475 113.386 183.475C112.965 183.475 112.667 183.577 112.492 183.781C112.321 183.981 112.236 184.269 112.236 184.644V195H109.967ZM119.822 195.188C118.884 195.188 118.072 194.981 117.384 194.569C116.697 194.156 116.164 193.579 115.784 192.837C115.409 192.096 115.222 191.229 115.222 190.237C115.222 189.246 115.409 188.377 115.784 187.631C116.164 186.885 116.697 186.306 117.384 185.894C118.072 185.481 118.884 185.275 119.822 185.275C120.759 185.275 121.572 185.481 122.259 185.894C122.947 186.306 123.478 186.885 123.853 187.631C124.232 188.377 124.422 189.246 124.422 190.237C124.422 191.229 124.232 192.096 123.853 192.837C123.478 193.579 122.947 194.156 122.259 194.569C121.572 194.981 120.759 195.188 119.822 195.188ZM119.834 193.375C120.343 193.375 120.768 193.235 121.109 192.956C121.451 192.673 121.705 192.294 121.872 191.819C122.043 191.344 122.128 190.815 122.128 190.231C122.128 189.644 122.043 189.112 121.872 188.637C121.705 188.158 121.451 187.777 121.109 187.494C120.768 187.21 120.343 187.069 119.834 187.069C119.314 187.069 118.88 187.21 118.534 187.494C118.193 187.777 117.936 188.158 117.766 188.637C117.599 189.112 117.516 189.644 117.516 190.231C117.516 190.815 117.599 191.344 117.766 191.819C117.936 192.294 118.193 192.673 118.534 192.956C118.88 193.235 119.314 193.375 119.834 193.375ZM127.831 185.4L129.769 188.944L131.738 185.4H134.131L131.238 190.2L134.181 195H131.8L129.769 191.544L127.756 195H125.356L128.281 190.2L125.431 185.4H127.831Z" fill="black"/>
<path d="M235.523 186.519H233.185C233.118 186.135 232.996 185.796 232.816 185.5C232.637 185.2 232.414 184.946 232.148 184.737C231.881 184.529 231.577 184.373 231.235 184.269C230.898 184.16 230.533 184.106 230.141 184.106C229.446 184.106 228.829 184.281 228.291 184.631C227.754 184.977 227.333 185.485 227.029 186.156C226.725 186.823 226.573 187.637 226.573 188.6C226.573 189.579 226.725 190.404 227.029 191.075C227.337 191.742 227.758 192.246 228.291 192.587C228.829 192.925 229.443 193.094 230.135 193.094C230.518 193.094 230.877 193.044 231.21 192.944C231.548 192.84 231.85 192.687 232.116 192.487C232.387 192.287 232.614 192.042 232.798 191.75C232.985 191.458 233.114 191.125 233.185 190.75L235.523 190.762C235.435 191.371 235.246 191.942 234.954 192.475C234.666 193.008 234.289 193.479 233.823 193.887C233.356 194.292 232.81 194.608 232.185 194.837C231.56 195.062 230.866 195.175 230.104 195.175C228.979 195.175 227.975 194.915 227.091 194.394C226.208 193.873 225.512 193.121 225.004 192.137C224.496 191.154 224.241 189.975 224.241 188.6C224.241 187.221 224.498 186.042 225.01 185.062C225.523 184.079 226.221 183.327 227.104 182.806C227.987 182.285 228.987 182.025 230.104 182.025C230.816 182.025 231.479 182.125 232.091 182.325C232.704 182.525 233.25 182.819 233.729 183.206C234.208 183.59 234.602 184.06 234.91 184.619C235.223 185.173 235.427 185.806 235.523 186.519ZM239.809 189.375V195H237.546V182.2H239.759V187.031H239.871C240.096 186.49 240.444 186.062 240.915 185.75C241.39 185.433 241.994 185.275 242.727 185.275C243.394 185.275 243.975 185.415 244.471 185.694C244.967 185.973 245.35 186.381 245.621 186.919C245.896 187.456 246.034 188.112 246.034 188.887V195H243.771V189.237C243.771 188.592 243.604 188.09 243.271 187.731C242.942 187.369 242.479 187.187 241.884 187.187C241.484 187.187 241.125 187.275 240.809 187.45C240.496 187.621 240.25 187.869 240.071 188.194C239.896 188.519 239.809 188.912 239.809 189.375ZM248.34 195V185.4H250.534V187H250.634C250.809 186.446 251.109 186.019 251.534 185.719C251.963 185.415 252.452 185.262 253.002 185.262C253.127 185.262 253.267 185.269 253.421 185.281C253.579 185.29 253.711 185.304 253.815 185.325V187.406C253.719 187.373 253.567 187.344 253.359 187.319C253.154 187.29 252.957 187.275 252.765 187.275C252.352 187.275 251.982 187.365 251.652 187.544C251.327 187.719 251.071 187.962 250.884 188.275C250.696 188.587 250.602 188.948 250.602 189.356V195H248.34ZM259.11 195.188C258.173 195.188 257.36 194.981 256.673 194.569C255.985 194.156 255.452 193.579 255.073 192.837C254.698 192.096 254.51 191.229 254.51 190.237C254.51 189.246 254.698 188.377 255.073 187.631C255.452 186.885 255.985 186.306 256.673 185.894C257.36 185.481 258.173 185.275 259.11 185.275C260.048 185.275 260.86 185.481 261.548 185.894C262.235 186.306 262.766 186.885 263.141 187.631C263.521 188.377 263.71 189.246 263.71 190.237C263.71 191.229 263.521 192.096 263.141 192.837C262.766 193.579 262.235 194.156 261.548 194.569C260.86 194.981 260.048 195.188 259.11 195.188ZM259.123 193.375C259.631 193.375 260.056 193.235 260.398 192.956C260.739 192.673 260.993 192.294 261.16 191.819C261.331 191.344 261.416 190.815 261.416 190.231C261.416 189.644 261.331 189.112 261.16 188.637C260.993 188.158 260.739 187.777 260.398 187.494C260.056 187.21 259.631 187.069 259.123 187.069C258.602 187.069 258.168 187.21 257.823 187.494C257.481 187.777 257.225 188.158 257.054 188.637C256.887 189.112 256.804 189.644 256.804 190.231C256.804 190.815 256.887 191.344 257.054 191.819C257.225 192.294 257.481 192.673 257.823 192.956C258.168 193.235 258.602 193.375 259.123 193.375ZM265.63 195V185.4H267.793V187.031H267.905C268.105 186.481 268.437 186.052 268.899 185.744C269.362 185.431 269.914 185.275 270.555 185.275C271.205 185.275 271.753 185.433 272.199 185.75C272.649 186.062 272.966 186.49 273.149 187.031H273.249C273.462 186.498 273.82 186.073 274.324 185.756C274.833 185.435 275.435 185.275 276.13 185.275C277.014 185.275 277.735 185.554 278.293 186.112C278.851 186.671 279.13 187.485 279.13 188.556V195H276.862V188.906C276.862 188.31 276.703 187.875 276.387 187.6C276.07 187.321 275.683 187.181 275.224 187.181C274.678 187.181 274.251 187.352 273.943 187.694C273.639 188.031 273.487 188.471 273.487 189.012V195H271.268V188.812C271.268 188.317 271.118 187.921 270.818 187.625C270.522 187.329 270.135 187.181 269.655 187.181C269.33 187.181 269.035 187.265 268.768 187.431C268.501 187.594 268.289 187.825 268.13 188.125C267.972 188.421 267.893 188.767 267.893 189.162V195H265.63ZM285.676 195.188C284.713 195.188 283.882 194.988 283.182 194.587C282.486 194.183 281.951 193.612 281.576 192.875C281.201 192.133 281.013 191.26 281.013 190.256C281.013 189.269 281.201 188.402 281.576 187.656C281.955 186.906 282.484 186.323 283.163 185.906C283.842 185.485 284.64 185.275 285.557 185.275C286.149 185.275 286.707 185.371 287.232 185.562C287.761 185.75 288.228 186.042 288.632 186.437C289.04 186.833 289.361 187.337 289.595 187.95C289.828 188.558 289.945 189.283 289.945 190.125V190.819H282.076V189.294H287.776C287.772 188.86 287.678 188.475 287.495 188.137C287.311 187.796 287.055 187.527 286.726 187.331C286.401 187.135 286.022 187.037 285.588 187.037C285.126 187.037 284.72 187.15 284.37 187.375C284.02 187.596 283.747 187.887 283.551 188.25C283.359 188.608 283.261 189.002 283.257 189.431V190.762C283.257 191.321 283.359 191.8 283.563 192.2C283.767 192.596 284.053 192.9 284.42 193.112C284.786 193.321 285.215 193.425 285.707 193.425C286.036 193.425 286.334 193.379 286.601 193.287C286.867 193.192 287.099 193.052 287.295 192.869C287.49 192.685 287.638 192.458 287.738 192.187L289.851 192.425C289.717 192.983 289.463 193.471 289.088 193.887C288.717 194.3 288.242 194.621 287.663 194.85C287.084 195.075 286.422 195.188 285.676 195.188Z" fill="black"/>
<g clip-path="url(#clip0_1_2)">
<path d="M257 143.49C269.979 143.49 280.5 132.968 280.5 119.99C280.5 107.011 269.979 96.4896 257 96.4896C244.021 96.4896 233.5 107.011 233.5 119.99C233.5 132.968 244.021 143.49 257 143.49Z" fill="white"/>
<path d="M257 96.5001H297.697C293.573 89.3548 287.64 83.4213 280.496 79.2961C273.351 75.1709 265.247 72.9994 256.997 73C248.747 73.0005 240.643 75.1732 233.499 79.2994C226.355 83.4256 220.423 89.36 216.301 96.5057L236.649 131.75L236.667 131.745C234.597 128.176 233.505 124.124 233.5 119.997C233.495 115.871 234.579 111.817 236.641 108.242C238.703 104.668 241.67 101.701 245.245 99.6393C248.819 97.5778 252.874 96.495 257 96.5001V96.5001Z" fill="url(#paint12_linear_1_2)"/>
<path d="M257 138.604C267.275 138.604 275.604 130.275 275.604 120C275.604 109.725 267.275 101.396 257 101.396C246.725 101.396 238.396 109.725 238.396 120C238.396 130.275 246.725 138.604 257 138.604Z" fill="#1A73E8"/>
<path d="M277.35 131.756L257.001 167C265.251 167.001 273.356 164.83 280.501 160.706C287.645 156.581 293.578 150.648 297.703 143.503C301.827 136.358 303.998 128.253 303.996 120.003C303.995 111.754 301.821 103.649 297.694 96.5061H256.998L256.993 96.5243C261.119 96.5163 265.175 97.5963 268.75 99.6554C272.326 101.715 275.296 104.68 277.36 108.253C279.425 111.825 280.511 115.879 280.509 120.006C280.507 124.132 279.417 128.185 277.35 131.756V131.756Z" fill="url(#paint13_linear_1_2)"/>
<path d="M236.65 131.756L216.302 96.5117C212.176 103.656 210.004 111.76 210.003 120.01C210.003 128.26 212.175 136.364 216.3 143.509C220.426 150.653 226.359 156.585 233.505 160.709C240.65 164.833 248.755 167.002 257.005 167L277.353 131.756L277.34 131.742C275.284 135.32 272.321 138.292 268.75 140.359C265.178 142.426 261.125 143.515 256.999 143.517C252.873 143.518 248.819 142.432 245.247 140.367C241.674 138.302 238.709 135.332 236.65 131.756V131.756Z" fill="url(#paint14_linear_1_2)"/>
</g>
<path d="M129.147 23V5.54545H135.829C137.091 5.54545 138.139 5.74432 138.974 6.14204C139.815 6.53409 140.443 7.07102 140.858 7.75284C141.278 8.43466 141.488 9.20739 141.488 10.071C141.488 10.7812 141.352 11.3892 141.079 11.8949C140.806 12.3949 140.44 12.8011 139.98 13.1136C139.52 13.4261 139.005 13.6506 138.437 13.7869V13.9574C139.056 13.9915 139.65 14.1818 140.218 14.5284C140.792 14.8693 141.261 15.3523 141.625 15.9773C141.988 16.6023 142.17 17.358 142.17 18.2443C142.17 19.1477 141.951 19.9602 141.514 20.6818C141.076 21.3977 140.417 21.9631 139.537 22.3778C138.656 22.7926 137.548 23 136.213 23H129.147ZM132.309 20.358H135.71C136.858 20.358 137.684 20.1392 138.19 19.7017C138.701 19.2585 138.957 18.6903 138.957 17.9972C138.957 17.4801 138.829 17.0142 138.574 16.5994C138.318 16.179 137.954 15.8494 137.483 15.6108C137.011 15.3665 136.449 15.2443 135.795 15.2443H132.309V20.358ZM132.309 12.9688H135.437C135.983 12.9688 136.474 12.8693 136.912 12.6705C137.349 12.4659 137.693 12.179 137.943 11.8097C138.199 11.4347 138.326 10.9915 138.326 10.4801C138.326 9.80398 138.088 9.24716 137.61 8.80966C137.139 8.37216 136.437 8.15341 135.505 8.15341H132.309V12.9688ZM144.784 23V9.90909H147.776V12.0909H147.912C148.151 11.3352 148.56 10.7528 149.14 10.3438C149.725 9.92898 150.392 9.72159 151.142 9.72159C151.313 9.72159 151.503 9.73011 151.713 9.74716C151.929 9.75852 152.108 9.77841 152.25 9.80682V12.6449C152.12 12.5994 151.912 12.5597 151.628 12.5256C151.35 12.4858 151.08 12.4659 150.819 12.4659C150.256 12.4659 149.75 12.5881 149.301 12.8324C148.858 13.071 148.509 13.4034 148.253 13.8295C147.998 14.2557 147.87 14.7472 147.87 15.304V23H144.784ZM159.471 23.2557C158.193 23.2557 157.085 22.9744 156.147 22.4119C155.21 21.8494 154.483 21.0625 153.966 20.0511C153.454 19.0398 153.199 17.858 153.199 16.5057C153.199 15.1534 153.454 13.9687 153.966 12.9517C154.483 11.9347 155.21 11.1449 156.147 10.5824C157.085 10.0199 158.193 9.73864 159.471 9.73864C160.75 9.73864 161.858 10.0199 162.795 10.5824C163.733 11.1449 164.457 11.9347 164.968 12.9517C165.485 13.9687 165.744 15.1534 165.744 16.5057C165.744 17.858 165.485 19.0398 164.968 20.0511C164.457 21.0625 163.733 21.8494 162.795 22.4119C161.858 22.9744 160.75 23.2557 159.471 23.2557ZM159.488 20.7841C160.181 20.7841 160.761 20.5937 161.227 20.2131C161.693 19.8267 162.039 19.3097 162.267 18.6619C162.5 18.0142 162.616 17.2926 162.616 16.4972C162.616 15.696 162.5 14.9716 162.267 14.3239C162.039 13.6705 161.693 13.1506 161.227 12.7642C160.761 12.3778 160.181 12.1847 159.488 12.1847C158.778 12.1847 158.187 12.3778 157.716 12.7642C157.25 13.1506 156.9 13.6705 156.667 14.3239C156.44 14.9716 156.326 15.696 156.326 16.4972C156.326 17.2926 156.44 18.0142 156.667 18.6619C156.9 19.3097 157.25 19.8267 157.716 20.2131C158.187 20.5937 158.778 20.7841 159.488 20.7841ZM170.689 23L166.99 9.90909H170.135L172.436 19.1136H172.556L174.908 9.90909H178.019L180.371 19.0625H180.499L182.766 9.90909H185.919L182.212 23H178.999L176.544 14.1534H176.365L173.911 23H170.689ZM198.42 13.3693L195.608 13.6761C195.528 13.392 195.389 13.125 195.19 12.875C194.997 12.625 194.735 12.4233 194.406 12.2699C194.076 12.1165 193.673 12.0398 193.196 12.0398C192.554 12.0398 192.014 12.179 191.576 12.4574C191.145 12.7358 190.931 13.0966 190.937 13.5398C190.931 13.9205 191.071 14.2301 191.355 14.4688C191.645 14.7074 192.122 14.9034 192.787 15.0568L195.02 15.5341C196.258 15.8011 197.179 16.2244 197.781 16.804C198.389 17.3835 198.696 18.142 198.701 19.0795C198.696 19.9034 198.454 20.6307 197.977 21.2614C197.505 21.8864 196.849 22.375 196.008 22.7273C195.167 23.0795 194.201 23.2557 193.11 23.2557C191.508 23.2557 190.218 22.9205 189.241 22.25C188.264 21.5739 187.681 20.6335 187.494 19.429L190.502 19.1392C190.639 19.7301 190.929 20.1761 191.372 20.4773C191.815 20.7784 192.392 20.929 193.102 20.929C193.835 20.929 194.423 20.7784 194.866 20.4773C195.315 20.1761 195.539 19.804 195.539 19.3608C195.539 18.9858 195.395 18.6761 195.105 18.4318C194.821 18.1875 194.377 18 193.775 17.8693L191.542 17.4006C190.287 17.1392 189.358 16.6989 188.755 16.0795C188.153 15.4545 187.855 14.6648 187.86 13.7102C187.855 12.9034 188.074 12.2045 188.517 11.6136C188.966 11.017 189.588 10.5568 190.383 10.233C191.184 9.90341 192.108 9.73864 193.153 9.73864C194.687 9.73864 195.895 10.0653 196.775 10.7188C197.662 11.3722 198.21 12.2557 198.42 13.3693ZM207.041 23.2557C205.728 23.2557 204.595 22.983 203.64 22.4375C202.691 21.8864 201.961 21.108 201.45 20.1023C200.939 19.0909 200.683 17.9006 200.683 16.5312C200.683 15.1847 200.939 14.0028 201.45 12.9858C201.967 11.9631 202.689 11.1676 203.615 10.5994C204.541 10.0256 205.629 9.73864 206.879 9.73864C207.686 9.73864 208.447 9.86932 209.163 10.1307C209.885 10.3864 210.521 10.7841 211.072 11.3239C211.629 11.8636 212.066 12.5511 212.385 13.3864C212.703 14.2159 212.862 15.2045 212.862 16.3523V17.2983H202.132V15.2188H209.904C209.899 14.6278 209.771 14.1023 209.521 13.642C209.271 13.1761 208.922 12.8097 208.473 12.5426C208.029 12.2756 207.512 12.142 206.922 12.142C206.291 12.142 205.737 12.2955 205.26 12.6023C204.782 12.9034 204.41 13.3011 204.143 13.7955C203.882 14.2841 203.748 14.821 203.743 15.4062V17.2216C203.743 17.983 203.882 18.6364 204.16 19.1818C204.439 19.7216 204.828 20.1364 205.328 20.4261C205.828 20.7102 206.413 20.8523 207.083 20.8523C207.532 20.8523 207.939 20.7898 208.302 20.6648C208.666 20.5341 208.981 20.3438 209.248 20.0938C209.515 19.8438 209.717 19.5341 209.853 19.1648L212.734 19.4886C212.552 20.25 212.206 20.9148 211.694 21.483C211.189 22.0455 210.541 22.483 209.751 22.7955C208.961 23.1023 208.058 23.2557 207.041 23.2557ZM215.472 23V9.90909H218.463V12.0909H218.6C218.838 11.3352 219.248 10.7528 219.827 10.3438C220.412 9.92898 221.08 9.72159 221.83 9.72159C222 9.72159 222.191 9.73011 222.401 9.74716C222.617 9.75852 222.796 9.77841 222.938 9.80682V12.6449C222.807 12.5994 222.6 12.5597 222.316 12.5256C222.037 12.4858 221.767 12.4659 221.506 12.4659C220.944 12.4659 220.438 12.5881 219.989 12.8324C219.546 13.071 219.196 13.4034 218.941 13.8295C218.685 14.2557 218.557 14.7472 218.557 15.304V23H215.472ZM235.334 13.3693L232.522 13.6761C232.442 13.392 232.303 13.125 232.104 12.875C231.911 12.625 231.65 12.4233 231.32 12.2699C230.99 12.1165 230.587 12.0398 230.11 12.0398C229.468 12.0398 228.928 12.179 228.49 12.4574C228.059 12.7358 227.846 13.0966 227.851 13.5398C227.846 13.9205 227.985 14.2301 228.269 14.4688C228.559 14.7074 229.036 14.9034 229.701 15.0568L231.934 15.5341C233.172 15.8011 234.093 16.2244 234.695 16.804C235.303 17.3835 235.61 18.142 235.615 19.0795C235.61 19.9034 235.368 20.6307 234.891 21.2614C234.419 21.8864 233.763 22.375 232.922 22.7273C232.081 23.0795 231.115 23.2557 230.025 23.2557C228.422 23.2557 227.132 22.9205 226.155 22.25C225.178 21.5739 224.596 20.6335 224.408 19.429L227.417 19.1392C227.553 19.7301 227.843 20.1761 228.286 20.4773C228.729 20.7784 229.306 20.929 230.016 20.929C230.749 20.929 231.337 20.7784 231.78 20.4773C232.229 20.1761 232.453 19.804 232.453 19.3608C232.453 18.9858 232.309 18.6761 232.019 18.4318C231.735 18.1875 231.292 18 230.689 17.8693L228.456 17.4006C227.201 17.1392 226.272 16.6989 225.669 16.0795C225.067 15.4545 224.769 14.6648 224.775 13.7102C224.769 12.9034 224.988 12.2045 225.431 11.6136C225.88 11.017 226.502 10.5568 227.297 10.233C228.098 9.90341 229.022 9.73864 230.067 9.73864C231.601 9.73864 232.809 10.0653 233.689 10.7188C234.576 11.3722 235.124 12.2557 235.334 13.3693Z" fill="black"/>
<defs>
<linearGradient id="paint0_linear_1_2" x1="142.847" y1="87.6226" x2="66.972" y2="161.665" gradientUnits="userSpaceOnUse">
<stop offset="0.048" stop-color="#FFF44F"/>
<stop offset="0.111" stop-color="#FFE847"/>
<stop offset="0.225" stop-color="#FFC830"/>
<stop offset="0.368" stop-color="#FF980E"/>
<stop offset="0.401" stop-color="#FF8B16"/>
<stop offset="0.462" stop-color="#FF672A"/>
<stop offset="0.534" stop-color="#FF3647"/>
<stop offset="0.705" stop-color="#E31587"/>
</linearGradient>
<radialGradient id="paint1_radial_1_2" cx="0" cy="0" r="1" gradientUnits="userSpaceOnUse" gradientTransform="translate(139.878 83.6305) scale(96.3364 95.2489)">
<stop offset="0.129" stop-color="#FFBD4F"/>
<stop offset="0.186" stop-color="#FFAC31"/>
<stop offset="0.247" stop-color="#FF9D17"/>
<stop offset="0.283" stop-color="#FF980E"/>
<stop offset="0.403" stop-color="#FF563B"/>
<stop offset="0.467" stop-color="#FF3750"/>
<stop offset="0.71" stop-color="#F5156C"/>
<stop offset="0.782" stop-color="#EB0878"/>
<stop offset="0.86" stop-color="#E50080"/>
</radialGradient>
<radialGradient id="paint2_radial_1_2" cx="0" cy="0" r="1" gradientUnits="userSpaceOnUse" gradientTransform="translate(104.109 122.532) scale(96.3364 95.2489)">
<stop offset="0.3" stop-color="#960E18"/>
<stop offset="0.351" stop-color="#B11927" stop-opacity="0.74"/>
<stop offset="0.435" stop-color="#DB293D" stop-opacity="0.343"/>
<stop offset="0.497" stop-color="#F5334B" stop-opacity="0.094"/>
<stop offset="0.53" stop-color="#FF3750" stop-opacity="0"/>
</radialGradient>
<radialGradient id="paint3_radial_1_2" cx="0" cy="0" r="1" gradientUnits="userSpaceOnUse" gradientTransform="translate(116.032 62.4117) scale(69.7843 68.9965)">
<stop offset="0.132" stop-color="#FFF44F"/>
<stop offset="0.252" stop-color="#FFDC3E"/>
<stop offset="0.506" stop-color="#FF9D12"/>
<stop offset="0.526" stop-color="#FF980E"/>
</radialGradient>
<radialGradient id="paint4_radial_1_2" cx="0" cy="0" r="1" gradientUnits="userSpaceOnUse" gradientTransform="translate(93.3791 147.287) scale(45.8671 45.3493)">
<stop offset="0.353" stop-color="#3A8EE6"/>
<stop offset="0.472" stop-color="#5C79F0"/>
<stop offset="0.669" stop-color="#9059FF"/>
<stop offset="1" stop-color="#C139E6"/>
</radialGradient>
<radialGradient id="paint5_radial_1_2" cx="0" cy="0" r="1" gradientUnits="userSpaceOnUse" gradientTransform="translate(108.769 114.355) rotate(-13.4437) scale(24.3076 28.1718)">
<stop offset="0.206" stop-color="#9059FF" stop-opacity="0"/>
<stop offset="0.278" stop-color="#8C4FF3" stop-opacity="0.064"/>
<stop offset="0.747" stop-color="#7716A8" stop-opacity="0.45"/>
<stop offset="0.975" stop-color="#6E008B" stop-opacity="0.6"/>
</radialGradient>
<radialGradient id="paint6_radial_1_2" cx="0" cy="0" r="1" gradientUnits="userSpaceOnUse" gradientTransform="translate(102.917 80.0941) scale(33.0024 32.6298)">
<stop stop-color="#FFE226"/>
<stop offset="0.121" stop-color="#FFDB27"/>
<stop offset="0.295" stop-color="#FFC82A"/>
<stop offset="0.502" stop-color="#FFA930"/>
<stop offset="0.732" stop-color="#FF7E37"/>
<stop offset="0.792" stop-color="#FF7139"/>
</radialGradient>
<radialGradient id="paint7_radial_1_2" cx="0" cy="0" r="1" gradientUnits="userSpaceOnUse" gradientTransform="translate(129.148 58.8752) scale(140.809 139.219)">
<stop offset="0.113" stop-color="#FFF44F"/>
<stop offset="0.456" stop-color="#FF980E"/>
<stop offset="0.622" stop-color="#FF5634"/>
<stop offset="0.716" stop-color="#FF3647"/>
<stop offset="0.904" stop-color="#E31587"/>
</radialGradient>
<radialGradient id="paint8_radial_1_2" cx="0" cy="0" r="1" gradientUnits="userSpaceOnUse" gradientTransform="translate(117.444 66.5942) rotate(83.9077) scale(102.035 67.7119)">
<stop stop-color="#FFF44F"/>
<stop offset="0.06" stop-color="#FFE847"/>
<stop offset="0.168" stop-color="#FFC830"/>
<stop offset="0.304" stop-color="#FF980E"/>
<stop offset="0.356" stop-color="#FF8B16"/>
<stop offset="0.455" stop-color="#FF672A"/>
<stop offset="0.57" stop-color="#FF3647"/>
<stop offset="0.737" stop-color="#E31587"/>
</radialGradient>
<radialGradient id="paint9_radial_1_2" cx="0" cy="0" r="1" gradientUnits="userSpaceOnUse" gradientTransform="translate(102.917 91.8823) scale(87.8951 86.9028)">
<stop offset="0.137" stop-color="#FFF44F"/>
<stop offset="0.48" stop-color="#FF980E"/>
<stop offset="0.592" stop-color="#FF5634"/>
<stop offset="0.655" stop-color="#FF3647"/>
<stop offset="0.904" stop-color="#E31587"/>
</radialGradient>
<radialGradient id="paint10_radial_1_2" cx="0" cy="0" r="1" gradientUnits="userSpaceOnUse" gradientTransform="translate(125.571 96.5976) scale(96.2053 95.1192)">
<stop offset="0.094" stop-color="#FFF44F"/>
<stop offset="0.231" stop-color="#FFE141"/>
<stop offset="0.509" stop-color="#FFAF1E"/>
<stop offset="0.626" stop-color="#FF980E"/>
</radialGradient>
<linearGradient id="paint11_linear_1_2" x1="141.917" y1="87.2336" x2="77.3925" y2="152.507" gradientUnits="userSpaceOnUse">
<stop offset="0.167" stop-color="#FFF44F" stop-opacity="0.8"/>
<stop offset="0.266" stop-color="#FFF44F" stop-opacity="0.634"/>
<stop offset="0.489" stop-color="#FFF44F" stop-opacity="0.217"/>
<stop offset="0.6" stop-color="#FFF44F" stop-opacity="0"/>
</linearGradient>
<linearGradient id="paint12_linear_1_2" x1="216.301" y1="102.375" x2="297.697" y2="102.375" gradientUnits="userSpaceOnUse">
<stop stop-color="#D93025"/>
<stop offset="1" stop-color="#EA4335"/>
</linearGradient>
<linearGradient id="paint13_linear_1_2" x1="250.58" y1="166.372" x2="291.278" y2="95.8806" gradientUnits="userSpaceOnUse">
<stop stop-color="#FCC934"/>
<stop offset="1" stop-color="#FBBC04"/>
</linearGradient>
<linearGradient id="paint14_linear_1_2" x1="262.088" y1="164.065" x2="221.39" y2="93.5743" gradientUnits="userSpaceOnUse">
<stop stop-color="#1E8E3E"/>
<stop offset="1" stop-color="#34A853"/>
</linearGradient>
<clipPath id="clip0_1_2">
<rect width="94" height="94" fill="white" transform="translate(210 73)"/>
</clipPath>
</defs>
</svg>
