<svg width="574" height="236" viewBox="0 0 574 236" fill="none" xmlns="http://www.w3.org/2000/svg">
<rect y="36" width="574" height="200" rx="60" fill="#F4F4F4"/>
<path d="M466.694 95.8494C457.227 95.8508 448.148 99.5535 441.454 106.143C434.76 112.733 431 121.669 431 130.987C431.001 140.305 434.763 149.24 441.456 155.828C448.15 162.417 457.228 166.119 466.694 166.12C476.162 166.122 485.243 162.421 491.939 155.832C498.635 149.244 502.398 140.307 502.4 130.987C502.398 121.668 498.635 112.731 491.939 106.143C485.243 99.5541 476.162 95.8534 466.694 95.8549V95.8494ZM476.937 106.4C478.622 106.399 480.291 106.726 481.848 107.36C483.405 107.994 484.819 108.924 486.011 110.097C487.203 111.27 488.148 112.662 488.792 114.194C489.437 115.726 489.768 117.369 489.767 119.027C489.766 122.374 488.413 125.584 486.007 127.95C483.601 130.316 480.338 131.644 476.937 131.643C473.537 131.643 470.277 130.315 467.872 127.95C465.467 125.585 464.115 122.378 464.112 119.032C464.11 117.375 464.441 115.733 465.084 114.2C465.728 112.668 466.672 111.276 467.862 110.103C469.053 108.93 470.466 107.999 472.022 107.364C473.578 106.728 475.247 106.401 476.931 106.4H476.937Z" fill="#42A5F5"/>
<path d="M494.073 89.6213C494.073 91.2788 494.405 92.92 495.05 94.4513C495.694 95.9826 496.639 97.3739 497.83 98.5459C499.021 99.7179 500.435 100.648 501.991 101.282C503.547 101.916 505.214 102.243 506.899 102.243C508.583 102.243 510.25 101.916 511.806 101.282C513.362 100.648 514.776 99.7179 515.967 98.5459C517.158 97.3739 518.103 95.9826 518.747 94.4513C519.392 92.92 519.724 91.2788 519.724 89.6213C519.724 87.9639 519.392 86.3226 518.747 84.7913C518.103 83.2601 517.158 81.8687 515.967 80.6967C514.776 79.5247 513.362 78.595 511.806 77.9607C510.25 77.3265 508.583 77 506.899 77C505.214 77 503.547 77.3265 501.991 77.9607C500.435 78.595 499.021 79.5247 497.83 80.6967C496.639 81.8687 495.694 83.2601 495.05 84.7913C494.405 86.3226 494.073 87.9639 494.073 89.6213V89.6213Z" fill="#42A5F5"/>
<path d="M464.371 195V182.2H466.69V193.056H472.327V195H464.371ZM480.359 190.962V185.4H482.621V195H480.427V193.294H480.327C480.111 193.831 479.754 194.271 479.259 194.612C478.767 194.954 478.161 195.125 477.44 195.125C476.811 195.125 476.254 194.985 475.771 194.706C475.292 194.423 474.917 194.012 474.646 193.475C474.375 192.933 474.24 192.279 474.24 191.512V185.4H476.502V191.162C476.502 191.771 476.669 192.254 477.002 192.612C477.336 192.971 477.773 193.15 478.315 193.15C478.648 193.15 478.971 193.069 479.284 192.906C479.596 192.744 479.852 192.502 480.052 192.181C480.257 191.856 480.359 191.45 480.359 190.962ZM487.71 195.194C487.102 195.194 486.554 195.085 486.066 194.869C485.583 194.648 485.2 194.323 484.916 193.894C484.637 193.465 484.498 192.935 484.498 192.306C484.498 191.765 484.598 191.317 484.798 190.962C484.998 190.608 485.271 190.325 485.616 190.112C485.962 189.9 486.352 189.74 486.785 189.631C487.223 189.519 487.675 189.437 488.141 189.387C488.704 189.329 489.16 189.277 489.51 189.231C489.86 189.181 490.114 189.106 490.273 189.006C490.435 188.902 490.516 188.742 490.516 188.525V188.487C490.516 188.017 490.377 187.652 490.098 187.394C489.818 187.135 489.416 187.006 488.891 187.006C488.337 187.006 487.898 187.127 487.573 187.369C487.252 187.61 487.035 187.896 486.923 188.225L484.81 187.925C484.977 187.342 485.252 186.854 485.635 186.462C486.018 186.067 486.487 185.771 487.041 185.575C487.596 185.375 488.208 185.275 488.879 185.275C489.341 185.275 489.802 185.329 490.26 185.437C490.718 185.546 491.137 185.725 491.516 185.975C491.896 186.221 492.2 186.556 492.429 186.981C492.662 187.406 492.779 187.937 492.779 188.575V195H490.604V193.681H490.529C490.391 193.948 490.198 194.198 489.948 194.431C489.702 194.66 489.391 194.846 489.016 194.987C488.646 195.125 488.21 195.194 487.71 195.194ZM488.298 193.531C488.752 193.531 489.146 193.442 489.479 193.262C489.812 193.079 490.068 192.837 490.248 192.537C490.431 192.237 490.523 191.91 490.523 191.556V190.425C490.452 190.483 490.331 190.537 490.16 190.587C489.993 190.637 489.806 190.681 489.598 190.719C489.389 190.756 489.183 190.79 488.979 190.819C488.775 190.848 488.598 190.873 488.448 190.894C488.11 190.94 487.808 191.015 487.541 191.119C487.275 191.223 487.064 191.369 486.91 191.556C486.756 191.74 486.679 191.977 486.679 192.269C486.679 192.685 486.831 193 487.135 193.212C487.439 193.425 487.827 193.531 488.298 193.531Z" fill="black"/>
<g clip-path="url(#clip0_1_75)">
<path d="M383 77H293V167H383V77Z" fill="#F7DF1E"/>
<path d="M353.457 147.313C355.27 150.273 357.629 152.449 361.8 152.449C365.304 152.449 367.543 150.697 367.543 148.277C367.543 145.377 365.243 144.35 361.386 142.663L359.271 141.756C353.169 139.156 349.114 135.899 349.114 129.013C349.114 122.67 353.947 117.841 361.5 117.841C366.877 117.841 370.743 119.713 373.529 124.613L366.943 128.841C365.493 126.241 363.929 125.217 361.5 125.217C359.023 125.217 357.453 126.789 357.453 128.841C357.453 131.379 359.024 132.406 362.653 133.977L364.767 134.883C371.953 137.964 376.01 141.106 376.01 148.169C376.01 155.783 370.029 159.954 361.996 159.954C354.141 159.954 349.067 156.211 346.584 151.306L353.457 147.313ZM323.581 148.046C324.91 150.403 326.119 152.396 329.024 152.396C331.803 152.396 333.556 151.309 333.556 147.081V118.324H342.013V147.196C342.013 155.953 336.879 159.939 329.384 159.939C322.613 159.939 318.691 156.434 316.697 152.214L323.581 148.046Z" fill="black"/>
</g>
<path d="M299.592 182.2H301.892V191.2C301.888 192.025 301.713 192.735 301.367 193.331C301.021 193.923 300.538 194.379 299.917 194.7C299.301 195.017 298.582 195.175 297.761 195.175C297.011 195.175 296.336 195.042 295.736 194.775C295.14 194.504 294.667 194.104 294.317 193.575C293.967 193.046 293.792 192.387 293.792 191.6H296.098C296.103 191.946 296.178 192.244 296.323 192.494C296.473 192.744 296.68 192.935 296.942 193.069C297.205 193.202 297.507 193.269 297.848 193.269C298.219 193.269 298.534 193.192 298.792 193.037C299.051 192.879 299.246 192.646 299.38 192.337C299.517 192.029 299.588 191.65 299.592 191.2V182.2ZM307.07 195.194C306.462 195.194 305.914 195.085 305.427 194.869C304.943 194.648 304.56 194.323 304.277 193.894C303.997 193.465 303.858 192.935 303.858 192.306C303.858 191.765 303.958 191.317 304.158 190.962C304.358 190.608 304.631 190.325 304.977 190.112C305.322 189.9 305.712 189.74 306.145 189.631C306.583 189.519 307.035 189.437 307.502 189.387C308.064 189.329 308.52 189.277 308.87 189.231C309.22 189.181 309.474 189.106 309.633 189.006C309.795 188.902 309.877 188.742 309.877 188.525V188.487C309.877 188.017 309.737 187.652 309.458 187.394C309.179 187.135 308.777 187.006 308.252 187.006C307.697 187.006 307.258 187.127 306.933 187.369C306.612 187.61 306.395 187.896 306.283 188.225L304.17 187.925C304.337 187.342 304.612 186.854 304.995 186.462C305.379 186.067 305.847 185.771 306.402 185.575C306.956 185.375 307.568 185.275 308.239 185.275C308.702 185.275 309.162 185.329 309.62 185.437C310.079 185.546 310.497 185.725 310.877 185.975C311.256 186.221 311.56 186.556 311.789 186.981C312.022 187.406 312.139 187.937 312.139 188.575V195H309.964V193.681H309.889C309.752 193.948 309.558 194.198 309.308 194.431C309.062 194.66 308.752 194.846 308.377 194.987C308.006 195.125 307.57 195.194 307.07 195.194ZM307.658 193.531C308.112 193.531 308.506 193.442 308.839 193.262C309.172 193.079 309.429 192.837 309.608 192.537C309.791 192.237 309.883 191.91 309.883 191.556V190.425C309.812 190.483 309.691 190.537 309.52 190.587C309.354 190.637 309.166 190.681 308.958 190.719C308.749 190.756 308.543 190.79 308.339 190.819C308.135 190.848 307.958 190.873 307.808 190.894C307.47 190.94 307.168 191.015 306.902 191.119C306.635 191.223 306.424 191.369 306.27 191.556C306.116 191.74 306.039 191.977 306.039 192.269C306.039 192.685 306.191 193 306.495 193.212C306.799 193.425 307.187 193.531 307.658 193.531ZM322.645 185.4L319.227 195H316.727L313.308 185.4H315.72L317.927 192.531H318.027L320.239 185.4H322.645ZM326.698 195.194C326.09 195.194 325.542 195.085 325.055 194.869C324.571 194.648 324.188 194.323 323.905 193.894C323.626 193.465 323.486 192.935 323.486 192.306C323.486 191.765 323.586 191.317 323.786 190.962C323.986 190.608 324.259 190.325 324.605 190.112C324.951 189.9 325.34 189.74 325.773 189.631C326.211 189.519 326.663 189.437 327.13 189.387C327.692 189.329 328.148 189.277 328.498 189.231C328.848 189.181 329.103 189.106 329.261 189.006C329.423 188.902 329.505 188.742 329.505 188.525V188.487C329.505 188.017 329.365 187.652 329.086 187.394C328.807 187.135 328.405 187.006 327.88 187.006C327.326 187.006 326.886 187.127 326.561 187.369C326.24 187.61 326.023 187.896 325.911 188.225L323.798 187.925C323.965 187.342 324.24 186.854 324.623 186.462C325.007 186.067 325.476 185.771 326.03 185.575C326.584 185.375 327.196 185.275 327.867 185.275C328.33 185.275 328.79 185.329 329.248 185.437C329.707 185.546 330.126 185.725 330.505 185.975C330.884 186.221 331.188 186.556 331.417 186.981C331.651 187.406 331.767 187.937 331.767 188.575V195H329.592V193.681H329.517C329.38 193.948 329.186 194.198 328.936 194.431C328.69 194.66 328.38 194.846 328.005 194.987C327.634 195.125 327.198 195.194 326.698 195.194ZM327.286 193.531C327.74 193.531 328.134 193.442 328.467 193.262C328.801 193.079 329.057 192.837 329.236 192.537C329.419 192.237 329.511 191.91 329.511 191.556V190.425C329.44 190.483 329.319 190.537 329.148 190.587C328.982 190.637 328.794 190.681 328.586 190.719C328.378 190.756 328.171 190.79 327.967 190.819C327.763 190.848 327.586 190.873 327.436 190.894C327.098 190.94 326.796 191.015 326.53 191.119C326.263 191.223 326.053 191.369 325.898 191.556C325.744 191.74 325.667 191.977 325.667 192.269C325.667 192.685 325.819 193 326.123 193.212C326.428 193.425 326.815 193.531 327.286 193.531ZM341.098 185.719C341.04 185.173 340.794 184.748 340.361 184.444C339.932 184.14 339.373 183.987 338.686 183.987C338.203 183.987 337.788 184.06 337.442 184.206C337.096 184.352 336.832 184.55 336.648 184.8C336.465 185.05 336.371 185.335 336.367 185.656C336.367 185.923 336.428 186.154 336.548 186.35C336.673 186.546 336.842 186.712 337.055 186.85C337.267 186.983 337.503 187.096 337.761 187.187C338.019 187.279 338.28 187.356 338.542 187.419L339.742 187.719C340.226 187.831 340.69 187.983 341.136 188.175C341.586 188.367 341.988 188.608 342.342 188.9C342.701 189.192 342.984 189.544 343.192 189.956C343.401 190.369 343.505 190.852 343.505 191.406C343.505 192.156 343.313 192.817 342.93 193.387C342.546 193.954 341.992 194.398 341.267 194.719C340.546 195.035 339.673 195.194 338.648 195.194C337.653 195.194 336.788 195.04 336.055 194.731C335.326 194.423 334.755 193.973 334.342 193.381C333.934 192.79 333.713 192.069 333.68 191.219H335.961C335.994 191.665 336.132 192.035 336.373 192.331C336.615 192.627 336.93 192.848 337.317 192.994C337.709 193.14 338.146 193.212 338.63 193.212C339.134 193.212 339.576 193.137 339.955 192.987C340.338 192.833 340.638 192.621 340.855 192.35C341.071 192.075 341.182 191.754 341.186 191.387C341.182 191.054 341.084 190.779 340.892 190.562C340.701 190.342 340.432 190.158 340.086 190.012C339.744 189.862 339.344 189.729 338.886 189.612L337.43 189.237C336.376 188.967 335.542 188.556 334.93 188.006C334.321 187.452 334.017 186.717 334.017 185.8C334.017 185.046 334.221 184.385 334.63 183.819C335.042 183.252 335.603 182.812 336.311 182.5C337.019 182.183 337.821 182.025 338.717 182.025C339.626 182.025 340.421 182.183 341.105 182.5C341.792 182.812 342.332 183.248 342.723 183.806C343.115 184.36 343.317 184.998 343.33 185.719H341.098ZM349.659 195.188C348.701 195.188 347.878 194.977 347.191 194.556C346.507 194.135 345.98 193.554 345.609 192.812C345.243 192.067 345.059 191.208 345.059 190.237C345.059 189.262 345.247 188.402 345.622 187.656C345.997 186.906 346.526 186.323 347.209 185.906C347.897 185.485 348.709 185.275 349.647 185.275C350.426 185.275 351.116 185.419 351.716 185.706C352.32 185.99 352.801 186.392 353.159 186.912C353.518 187.429 353.722 188.033 353.772 188.725H351.609C351.522 188.262 351.314 187.877 350.984 187.569C350.659 187.256 350.224 187.1 349.678 187.1C349.216 187.1 348.809 187.225 348.459 187.475C348.109 187.721 347.836 188.075 347.641 188.537C347.449 189 347.353 189.554 347.353 190.2C347.353 190.854 347.449 191.417 347.641 191.887C347.832 192.354 348.101 192.715 348.447 192.969C348.797 193.219 349.207 193.344 349.678 193.344C350.011 193.344 350.309 193.281 350.572 193.156C350.839 193.027 351.061 192.842 351.241 192.6C351.42 192.358 351.543 192.065 351.609 191.719H353.772C353.718 192.398 353.518 193 353.172 193.525C352.826 194.046 352.355 194.454 351.759 194.75C351.164 195.042 350.464 195.188 349.659 195.188ZM355.63 195V185.4H357.823V187H357.923C358.098 186.446 358.398 186.019 358.823 185.719C359.253 185.415 359.742 185.262 360.292 185.262C360.417 185.262 360.557 185.269 360.711 185.281C360.869 185.29 361.001 185.304 361.105 185.325V187.406C361.009 187.373 360.857 187.344 360.648 187.319C360.444 187.29 360.246 187.275 360.055 187.275C359.642 187.275 359.271 187.365 358.942 187.544C358.617 187.719 358.361 187.962 358.173 188.275C357.986 188.587 357.892 188.948 357.892 189.356V195H355.63ZM362.608 195V185.4H364.87V195H362.608ZM363.745 184.037C363.387 184.037 363.079 183.919 362.82 183.681C362.562 183.44 362.433 183.15 362.433 182.812C362.433 182.471 362.562 182.181 362.82 181.944C363.079 181.702 363.387 181.581 363.745 181.581C364.108 181.581 364.416 181.702 364.67 181.944C364.929 182.181 365.058 182.471 365.058 182.812C365.058 183.15 364.929 183.44 364.67 183.681C364.416 183.919 364.108 184.037 363.745 184.037ZM367.197 198.6V185.4H369.422V186.987H369.553C369.67 186.754 369.834 186.506 370.047 186.244C370.259 185.977 370.547 185.75 370.909 185.562C371.272 185.371 371.734 185.275 372.297 185.275C373.039 185.275 373.707 185.465 374.303 185.844C374.903 186.219 375.378 186.775 375.728 187.512C376.082 188.246 376.259 189.146 376.259 190.212C376.259 191.267 376.086 192.162 375.741 192.9C375.395 193.637 374.924 194.2 374.328 194.587C373.732 194.975 373.057 195.169 372.303 195.169C371.753 195.169 371.297 195.077 370.934 194.894C370.572 194.71 370.28 194.49 370.059 194.231C369.843 193.969 369.674 193.721 369.553 193.487H369.459V198.6H367.197ZM369.416 190.2C369.416 190.821 369.503 191.365 369.678 191.831C369.857 192.298 370.114 192.662 370.447 192.925C370.784 193.183 371.193 193.312 371.672 193.312C372.172 193.312 372.591 193.179 372.928 192.912C373.266 192.642 373.52 192.273 373.691 191.806C373.866 191.335 373.953 190.8 373.953 190.2C373.953 189.604 373.868 189.075 373.697 188.612C373.526 188.15 373.272 187.787 372.934 187.525C372.597 187.262 372.176 187.131 371.672 187.131C371.189 187.131 370.778 187.258 370.441 187.512C370.103 187.767 369.847 188.123 369.672 188.581C369.501 189.04 369.416 189.579 369.416 190.2ZM382.991 185.4V187.15H377.472V185.4H382.991ZM378.834 183.1H381.097V192.112C381.097 192.417 381.143 192.65 381.234 192.812C381.33 192.971 381.455 193.079 381.609 193.137C381.764 193.196 381.934 193.225 382.122 193.225C382.264 193.225 382.393 193.215 382.509 193.194C382.63 193.173 382.722 193.154 382.784 193.137L383.166 194.906C383.045 194.948 382.872 194.994 382.647 195.044C382.426 195.094 382.155 195.123 381.834 195.131C381.268 195.148 380.757 195.062 380.303 194.875C379.849 194.683 379.489 194.387 379.222 193.987C378.959 193.587 378.83 193.087 378.834 192.487V183.1Z" fill="black"/>
<g clip-path="url(#clip1_1_75)">
<path d="M253 77L246.076 154.391L214.953 163L183.916 154.403L177 77H253Z" fill="#264DE4"/>
<path d="M240.149 149.463L246.066 83.3289H215V156.42L240.149 149.463Z" fill="#2965F1"/>
<path d="M192.856 112.037L193.709 121.53H215V112.037H192.856Z" fill="#EBEBEB"/>
<path d="M215 92.8221H214.967H191.142L192.007 102.315H215V92.8221Z" fill="#EBEBEB"/>
<path d="M215 146.568V136.691L214.958 136.702L204.362 133.848L203.685 126.276H198.536H194.134L195.467 141.182L214.956 146.58L215 146.568Z" fill="#EBEBEB"/>
<path d="M226.683 121.53L225.579 133.842L214.967 136.699V146.576L234.472 141.182L234.615 139.578L236.851 114.586L237.083 112.037L238.801 92.8221H214.967V102.315H228.374L227.508 112.037H214.967V121.53H226.683Z" fill="white"/>
</g>
<path d="M209.249 186.519H206.912C206.845 186.135 206.722 185.796 206.543 185.5C206.364 185.2 206.141 184.946 205.874 184.737C205.608 184.529 205.303 184.373 204.962 184.269C204.624 184.16 204.26 184.106 203.868 184.106C203.172 184.106 202.555 184.281 202.018 184.631C201.48 184.977 201.06 185.485 200.755 186.156C200.451 186.823 200.299 187.637 200.299 188.6C200.299 189.579 200.451 190.404 200.755 191.075C201.064 191.742 201.485 192.246 202.018 192.587C202.555 192.925 203.17 193.094 203.862 193.094C204.245 193.094 204.603 193.044 204.937 192.944C205.274 192.84 205.576 192.687 205.843 192.487C206.114 192.287 206.341 192.042 206.524 191.75C206.712 191.458 206.841 191.125 206.912 190.75L209.249 190.762C209.162 191.371 208.972 191.942 208.68 192.475C208.393 193.008 208.016 193.479 207.549 193.887C207.083 194.292 206.537 194.608 205.912 194.837C205.287 195.062 204.593 195.175 203.83 195.175C202.705 195.175 201.701 194.915 200.818 194.394C199.935 193.873 199.239 193.121 198.73 192.137C198.222 191.154 197.968 189.975 197.968 188.6C197.968 187.221 198.224 186.042 198.737 185.062C199.249 184.079 199.947 183.327 200.83 182.806C201.714 182.285 202.714 182.025 203.83 182.025C204.543 182.025 205.205 182.125 205.818 182.325C206.43 182.525 206.976 182.819 207.455 183.206C207.935 183.59 208.328 184.06 208.637 184.619C208.949 185.173 209.153 185.806 209.249 186.519ZM218.329 185.719C218.271 185.173 218.025 184.748 217.591 184.444C217.162 184.14 216.604 183.987 215.916 183.987C215.433 183.987 215.018 184.06 214.673 184.206C214.327 184.352 214.062 184.55 213.879 184.8C213.696 185.05 213.602 185.335 213.598 185.656C213.598 185.923 213.658 186.154 213.779 186.35C213.904 186.546 214.073 186.712 214.285 186.85C214.498 186.983 214.733 187.096 214.991 187.187C215.25 187.279 215.51 187.356 215.773 187.419L216.973 187.719C217.456 187.831 217.921 187.983 218.366 188.175C218.816 188.367 219.218 188.608 219.573 188.9C219.931 189.192 220.214 189.544 220.423 189.956C220.631 190.369 220.735 190.852 220.735 191.406C220.735 192.156 220.543 192.817 220.16 193.387C219.777 193.954 219.223 194.398 218.498 194.719C217.777 195.035 216.904 195.194 215.879 195.194C214.883 195.194 214.018 195.04 213.285 194.731C212.556 194.423 211.985 193.973 211.573 193.381C211.164 192.79 210.943 192.069 210.91 191.219H213.191C213.225 191.665 213.362 192.035 213.604 192.331C213.846 192.627 214.16 192.848 214.548 192.994C214.939 193.14 215.377 193.212 215.86 193.212C216.364 193.212 216.806 193.137 217.185 192.987C217.568 192.833 217.868 192.621 218.085 192.35C218.302 192.075 218.412 191.754 218.416 191.387C218.412 191.054 218.314 190.779 218.123 190.562C217.931 190.342 217.662 190.158 217.316 190.012C216.975 189.862 216.575 189.729 216.116 189.612L214.66 189.237C213.606 188.967 212.773 188.556 212.16 188.006C211.552 187.452 211.248 186.717 211.248 185.8C211.248 185.046 211.452 184.385 211.86 183.819C212.273 183.252 212.833 182.812 213.541 182.5C214.25 182.183 215.052 182.025 215.948 182.025C216.856 182.025 217.652 182.183 218.335 182.5C219.023 182.812 219.562 183.248 219.954 183.806C220.346 184.36 220.548 184.998 220.56 185.719H218.329ZM229.759 185.719C229.7 185.173 229.454 184.748 229.021 184.444C228.592 184.14 228.034 183.987 227.346 183.987C226.863 183.987 226.448 184.06 226.102 184.206C225.757 184.352 225.492 184.55 225.309 184.8C225.125 185.05 225.032 185.335 225.027 185.656C225.027 185.923 225.088 186.154 225.209 186.35C225.334 186.546 225.502 186.712 225.715 186.85C225.927 186.983 226.163 187.096 226.421 187.187C226.679 187.279 226.94 187.356 227.202 187.419L228.402 187.719C228.886 187.831 229.35 187.983 229.796 188.175C230.246 188.367 230.648 188.608 231.002 188.9C231.361 189.192 231.644 189.544 231.852 189.956C232.061 190.369 232.165 190.852 232.165 191.406C232.165 192.156 231.973 192.817 231.59 193.387C231.207 193.954 230.652 194.398 229.927 194.719C229.207 195.035 228.334 195.194 227.309 195.194C226.313 195.194 225.448 195.04 224.715 194.731C223.986 194.423 223.415 193.973 223.002 193.381C222.594 192.79 222.373 192.069 222.34 191.219H224.621C224.654 191.665 224.792 192.035 225.034 192.331C225.275 192.627 225.59 192.848 225.977 192.994C226.369 193.14 226.807 193.212 227.29 193.212C227.794 193.212 228.236 193.137 228.615 192.987C228.998 192.833 229.298 192.621 229.515 192.35C229.732 192.075 229.842 191.754 229.846 191.387C229.842 191.054 229.744 190.779 229.552 190.562C229.361 190.342 229.092 190.158 228.746 190.012C228.404 189.862 228.004 189.729 227.546 189.612L226.09 189.237C225.036 188.967 224.202 188.556 223.59 188.006C222.982 187.452 222.677 186.717 222.677 185.8C222.677 185.046 222.882 184.385 223.29 183.819C223.702 183.252 224.263 182.812 224.971 182.5C225.679 182.183 226.482 182.025 227.377 182.025C228.286 182.025 229.082 182.183 229.765 182.5C230.452 182.812 230.992 183.248 231.384 183.806C231.775 184.36 231.977 184.998 231.99 185.719H229.759Z" fill="black"/>
<path d="M60.7311 154.429L53.7778 77H130.222L123.269 154.387L91.9368 163" fill="#E44D26"/>
<path d="M92 156.311V83.6889H122.578L116.743 149.35" fill="#F16529"/>
<path d="M68.1111 93.2444H92V102.686H78.5468L79.4269 112.357H92V121.778H70.7096M71.1287 126.52H80.6842L81.3548 134.069L92 136.898V146.756L72.4698 141.348" fill="#EBEBEB"/>
<path d="M115.889 93.2444H92V102.694H115.007M114.147 112.372H92V121.821H103.756L102.643 134.101L92 136.932V146.756L111.523 141.386" fill="white"/>
<path d="M68.4453 195V182.2H70.7641V187.619H76.6953V182.2H79.0203V195H76.6953V189.562H70.7641V195H68.4453ZM80.9797 184.144V182.2H91.1922V184.144H87.2359V195H84.9359V184.144H80.9797ZM93.1609 182.2H95.9984L99.7984 191.475H99.9484L103.748 182.2H106.586V195H104.361V186.206H104.242L100.705 194.962H99.0422L95.5047 186.187H95.3859V195H93.1609V182.2ZM109.111 195V182.2H111.43V193.056H117.067V195H109.111Z" fill="black"/>
<path d="M220.831 18V0.545454H223.993V15.3494H231.68V18H220.831ZM238.055 18.2642C237.226 18.2642 236.479 18.1165 235.814 17.821C235.155 17.5199 234.632 17.0767 234.246 16.4915C233.865 15.9062 233.675 15.1847 233.675 14.3267C233.675 13.5881 233.811 12.9773 234.084 12.4943C234.357 12.0114 234.729 11.625 235.2 11.3352C235.672 11.0455 236.203 10.8267 236.794 10.679C237.391 10.5256 238.007 10.4148 238.643 10.3466C239.411 10.267 240.033 10.196 240.51 10.1335C240.987 10.0653 241.334 9.96307 241.55 9.8267C241.771 9.68466 241.882 9.46591 241.882 9.17045V9.11932C241.882 8.47727 241.692 7.98011 241.311 7.62784C240.93 7.27557 240.382 7.09943 239.666 7.09943C238.911 7.09943 238.311 7.2642 237.868 7.59375C237.43 7.9233 237.135 8.3125 236.982 8.76136L234.101 8.35227C234.328 7.55682 234.703 6.89205 235.226 6.35795C235.749 5.81818 236.388 5.41477 237.143 5.14773C237.899 4.875 238.734 4.73864 239.649 4.73864C240.28 4.73864 240.908 4.8125 241.533 4.96023C242.158 5.10795 242.729 5.35227 243.246 5.69318C243.763 6.02841 244.178 6.4858 244.49 7.06534C244.808 7.64489 244.967 8.36932 244.967 9.23864V18H242.001V16.2017H241.899C241.712 16.5653 241.447 16.9062 241.107 17.2244C240.771 17.5369 240.348 17.7898 239.837 17.983C239.331 18.1705 238.737 18.2642 238.055 18.2642ZM238.857 15.9972C239.476 15.9972 240.013 15.875 240.467 15.6307C240.922 15.3807 241.271 15.0511 241.516 14.642C241.766 14.233 241.891 13.7869 241.891 13.304V11.7614C241.794 11.8409 241.629 11.9148 241.396 11.983C241.169 12.0511 240.913 12.1108 240.629 12.1619C240.345 12.2131 240.064 12.2585 239.786 12.2983C239.507 12.3381 239.266 12.3722 239.061 12.4006C238.601 12.4631 238.189 12.5653 237.825 12.7074C237.462 12.8494 237.175 13.0483 236.964 13.304C236.754 13.554 236.649 13.8778 236.649 14.2756C236.649 14.8438 236.857 15.2727 237.271 15.5625C237.686 15.8523 238.214 15.9972 238.857 15.9972ZM251.155 10.3295V18H248.07V4.90909H251.018V7.13352H251.172C251.473 6.40057 251.953 5.81818 252.612 5.38636C253.277 4.95455 254.098 4.73864 255.075 4.73864C255.979 4.73864 256.766 4.93182 257.436 5.31818C258.112 5.70455 258.635 6.2642 259.004 6.99716C259.379 7.73011 259.564 8.61932 259.558 9.66477V18H256.473V10.142C256.473 9.26705 256.246 8.58239 255.791 8.08807C255.342 7.59375 254.72 7.34659 253.925 7.34659C253.385 7.34659 252.905 7.46591 252.484 7.70455C252.07 7.9375 251.743 8.27557 251.504 8.71875C251.271 9.16193 251.155 9.69886 251.155 10.3295ZM268.388 23.1818C267.28 23.1818 266.328 23.0313 265.533 22.7301C264.737 22.4347 264.098 22.0369 263.615 21.5369C263.132 21.0369 262.797 20.483 262.609 19.875L265.388 19.2017C265.513 19.4574 265.695 19.7102 265.933 19.9602C266.172 20.2159 266.493 20.4261 266.896 20.5909C267.305 20.7614 267.82 20.8466 268.439 20.8466C269.314 20.8466 270.038 20.6335 270.612 20.2074C271.186 19.7869 271.473 19.0938 271.473 18.1278V15.6477H271.32C271.161 15.9659 270.928 16.2926 270.621 16.6278C270.32 16.9631 269.919 17.2443 269.419 17.4716C268.925 17.6989 268.303 17.8125 267.553 17.8125C266.547 17.8125 265.635 17.5767 264.817 17.1051C264.004 16.6278 263.357 15.9176 262.874 14.9744C262.396 14.0256 262.158 12.8381 262.158 11.4119C262.158 9.97443 262.396 8.76136 262.874 7.77273C263.357 6.77841 264.007 6.02557 264.825 5.5142C265.643 4.99716 266.555 4.73864 267.561 4.73864C268.328 4.73864 268.959 4.86932 269.453 5.13068C269.953 5.38636 270.351 5.69602 270.646 6.05966C270.942 6.41761 271.166 6.75568 271.32 7.07386H271.49V4.90909H274.533V18.2131C274.533 19.3324 274.266 20.2585 273.732 20.9915C273.197 21.7244 272.467 22.2727 271.541 22.6364C270.615 23 269.564 23.1818 268.388 23.1818ZM268.413 15.392C269.067 15.392 269.624 15.233 270.084 14.9148C270.544 14.5966 270.893 14.1392 271.132 13.5426C271.371 12.946 271.49 12.2301 271.49 11.3949C271.49 10.571 271.371 9.84943 271.132 9.23011C270.899 8.6108 270.553 8.13068 270.092 7.78977C269.638 7.44318 269.078 7.26989 268.413 7.26989C267.726 7.26989 267.152 7.44886 266.692 7.80682C266.232 8.16477 265.885 8.65625 265.652 9.28125C265.419 9.90057 265.303 10.6051 265.303 11.3949C265.303 12.196 265.419 12.8977 265.652 13.5C265.891 14.0966 266.24 14.5625 266.7 14.8977C267.166 15.2273 267.737 15.392 268.413 15.392ZM286.038 12.4943V4.90909H289.124V18H286.132V15.6733H285.996C285.7 16.4062 285.214 17.0057 284.538 17.4716C283.868 17.9375 283.041 18.1705 282.058 18.1705C281.2 18.1705 280.442 17.9801 279.783 17.5994C279.129 17.2131 278.618 16.6534 278.249 15.9205C277.879 15.1818 277.695 14.2898 277.695 13.2443V4.90909H280.78V12.767C280.78 13.5966 281.007 14.2557 281.462 14.7443C281.916 15.233 282.513 15.4773 283.251 15.4773C283.706 15.4773 284.146 15.3665 284.572 15.1449C284.999 14.9233 285.348 14.5938 285.621 14.1562C285.899 13.7131 286.038 13.1591 286.038 12.4943ZM296.063 18.2642C295.234 18.2642 294.487 18.1165 293.822 17.821C293.163 17.5199 292.64 17.0767 292.254 16.4915C291.873 15.9062 291.683 15.1847 291.683 14.3267C291.683 13.5881 291.819 12.9773 292.092 12.4943C292.364 12.0114 292.737 11.625 293.208 11.3352C293.68 11.0455 294.211 10.8267 294.802 10.679C295.398 10.5256 296.015 10.4148 296.651 10.3466C297.418 10.267 298.04 10.196 298.518 10.1335C298.995 10.0653 299.342 9.96307 299.558 9.8267C299.779 9.68466 299.89 9.46591 299.89 9.17045V9.11932C299.89 8.47727 299.7 7.98011 299.319 7.62784C298.938 7.27557 298.39 7.09943 297.674 7.09943C296.918 7.09943 296.319 7.2642 295.876 7.59375C295.438 7.9233 295.143 8.3125 294.989 8.76136L292.109 8.35227C292.336 7.55682 292.711 6.89205 293.234 6.35795C293.756 5.81818 294.396 5.41477 295.151 5.14773C295.907 4.875 296.742 4.73864 297.657 4.73864C298.288 4.73864 298.915 4.8125 299.54 4.96023C300.165 5.10795 300.737 5.35227 301.254 5.69318C301.771 6.02841 302.185 6.4858 302.498 7.06534C302.816 7.64489 302.975 8.36932 302.975 9.23864V18H300.009V16.2017H299.907C299.719 16.5653 299.455 16.9062 299.114 17.2244C298.779 17.5369 298.356 17.7898 297.844 17.983C297.339 18.1705 296.745 18.2642 296.063 18.2642ZM296.864 15.9972C297.484 15.9972 298.021 15.875 298.475 15.6307C298.93 15.3807 299.279 15.0511 299.523 14.642C299.773 14.233 299.898 13.7869 299.898 13.304V11.7614C299.802 11.8409 299.637 11.9148 299.404 11.983C299.177 12.0511 298.921 12.1108 298.637 12.1619C298.353 12.2131 298.072 12.2585 297.793 12.2983C297.515 12.3381 297.273 12.3722 297.069 12.4006C296.609 12.4631 296.197 12.5653 295.833 12.7074C295.469 12.8494 295.183 13.0483 294.972 13.304C294.762 13.554 294.657 13.8778 294.657 14.2756C294.657 14.8438 294.864 15.2727 295.279 15.5625C295.694 15.8523 296.222 15.9972 296.864 15.9972ZM311.771 23.1818C310.663 23.1818 309.711 23.0313 308.915 22.7301C308.12 22.4347 307.481 22.0369 306.998 21.5369C306.515 21.0369 306.18 20.483 305.992 19.875L308.771 19.2017C308.896 19.4574 309.077 19.7102 309.316 19.9602C309.555 20.2159 309.876 20.4261 310.279 20.5909C310.688 20.7614 311.202 20.8466 311.822 20.8466C312.697 20.8466 313.421 20.6335 313.995 20.2074C314.569 19.7869 314.856 19.0938 314.856 18.1278V15.6477H314.702C314.543 15.9659 314.31 16.2926 314.004 16.6278C313.702 16.9631 313.302 17.2443 312.802 17.4716C312.308 17.6989 311.685 17.8125 310.935 17.8125C309.93 17.8125 309.018 17.5767 308.2 17.1051C307.387 16.6278 306.739 15.9176 306.256 14.9744C305.779 14.0256 305.54 12.8381 305.54 11.4119C305.54 9.97443 305.779 8.76136 306.256 7.77273C306.739 6.77841 307.39 6.02557 308.208 5.5142C309.026 4.99716 309.938 4.73864 310.944 4.73864C311.711 4.73864 312.342 4.86932 312.836 5.13068C313.336 5.38636 313.734 5.69602 314.029 6.05966C314.325 6.41761 314.549 6.75568 314.702 7.07386H314.873V4.90909H317.915V18.2131C317.915 19.3324 317.648 20.2585 317.114 20.9915C316.58 21.7244 315.85 22.2727 314.924 22.6364C313.998 23 312.947 23.1818 311.771 23.1818ZM311.796 15.392C312.45 15.392 313.006 15.233 313.467 14.9148C313.927 14.5966 314.276 14.1392 314.515 13.5426C314.754 12.946 314.873 12.2301 314.873 11.3949C314.873 10.571 314.754 9.84943 314.515 9.23011C314.282 8.6108 313.935 8.13068 313.475 7.78977C313.021 7.44318 312.461 7.26989 311.796 7.26989C311.109 7.26989 310.535 7.44886 310.075 7.80682C309.614 8.16477 309.268 8.65625 309.035 9.28125C308.802 9.90057 308.685 10.6051 308.685 11.3949C308.685 12.196 308.802 12.8977 309.035 13.5C309.273 14.0966 309.623 14.5625 310.083 14.8977C310.549 15.2273 311.12 15.392 311.796 15.392ZM326.873 18.2557C325.56 18.2557 324.427 17.983 323.472 17.4375C322.523 16.8864 321.793 16.108 321.282 15.1023C320.771 14.0909 320.515 12.9006 320.515 11.5312C320.515 10.1847 320.771 9.00284 321.282 7.9858C321.799 6.96307 322.521 6.16761 323.447 5.59943C324.373 5.02557 325.461 4.73864 326.711 4.73864C327.518 4.73864 328.279 4.86932 328.995 5.13068C329.717 5.38636 330.353 5.78409 330.904 6.32386C331.461 6.86364 331.898 7.55114 332.217 8.38636C332.535 9.21591 332.694 10.2045 332.694 11.3523V12.2983H321.964V10.2188H329.737C329.731 9.62784 329.603 9.10227 329.353 8.64205C329.103 8.17614 328.754 7.80966 328.305 7.54261C327.862 7.27557 327.344 7.14205 326.754 7.14205C326.123 7.14205 325.569 7.29545 325.092 7.60227C324.614 7.90341 324.242 8.30114 323.975 8.79545C323.714 9.28409 323.58 9.82102 323.575 10.4062V12.2216C323.575 12.983 323.714 13.6364 323.992 14.1818C324.271 14.7216 324.66 15.1364 325.16 15.4261C325.66 15.7102 326.245 15.8523 326.915 15.8523C327.364 15.8523 327.771 15.7898 328.134 15.6648C328.498 15.5341 328.813 15.3438 329.08 15.0938C329.347 14.8438 329.549 14.5341 329.685 14.1648L332.566 14.4886C332.384 15.25 332.038 15.9148 331.526 16.483C331.021 17.0455 330.373 17.483 329.583 17.7955C328.793 18.1023 327.89 18.2557 326.873 18.2557ZM345.651 8.36932L342.838 8.67614C342.759 8.39205 342.619 8.125 342.42 7.875C342.227 7.625 341.966 7.4233 341.636 7.26989C341.307 7.11648 340.903 7.03977 340.426 7.03977C339.784 7.03977 339.244 7.17898 338.807 7.45739C338.375 7.7358 338.162 8.09659 338.168 8.53977C338.162 8.92045 338.301 9.23011 338.585 9.46875C338.875 9.70739 339.352 9.90341 340.017 10.0568L342.25 10.5341C343.489 10.8011 344.409 11.2244 345.011 11.804C345.619 12.3835 345.926 13.142 345.932 14.0795C345.926 14.9034 345.685 15.6307 345.207 16.2614C344.736 16.8864 344.08 17.375 343.239 17.7273C342.398 18.0795 341.432 18.2557 340.341 18.2557C338.739 18.2557 337.449 17.9205 336.472 17.25C335.494 16.5739 334.912 15.6335 334.724 14.429L337.733 14.1392C337.869 14.7301 338.159 15.1761 338.602 15.4773C339.045 15.7784 339.622 15.929 340.332 15.929C341.065 15.929 341.653 15.7784 342.097 15.4773C342.545 15.1761 342.77 14.804 342.77 14.3608C342.77 13.9858 342.625 13.6761 342.335 13.4318C342.051 13.1875 341.608 13 341.006 12.8693L338.773 12.4006C337.517 12.1392 336.588 11.6989 335.986 11.0795C335.384 10.4545 335.085 9.66477 335.091 8.71023C335.085 7.90341 335.304 7.20455 335.747 6.61364C336.196 6.01705 336.818 5.55682 337.614 5.23295C338.415 4.90341 339.338 4.73864 340.384 4.73864C341.918 4.73864 343.125 5.06534 344.006 5.71875C344.892 6.37216 345.44 7.25568 345.651 8.36932Z" fill="black"/>
<defs>
<clipPath id="clip0_1_75">
<rect width="90" height="90" fill="white" transform="translate(293 77)"/>
</clipPath>
<clipPath id="clip1_1_75">
<rect width="76" height="86" fill="white" transform="translate(177 77)"/>
</clipPath>
</defs>
</svg>
