<svg width="365" height="236" viewBox="0 0 365 236" fill="none" xmlns="http://www.w3.org/2000/svg">
<rect x="6" y="36" width="352" height="200" rx="60" fill="#F4F4F4"/>
<g clip-path="url(#clip0_1_251)">
<path d="M153 136.5C153 164.943 129.943 188 101.5 188C73.0573 188 50 164.943 50 136.5C50 108.057 73.0573 85 101.5 85C129.943 85 153 108.057 153 136.5V136.5Z" fill="#1793D1"/>
<path fill-rule="evenodd" clip-rule="evenodd" d="M101.493 92.9966C98.4043 100.57 96.5411 105.524 93.1018 112.873C95.2105 115.108 97.7989 117.711 102.002 120.651C97.4832 118.792 94.4006 116.925 92.0969 114.987C87.6952 124.172 80.799 137.255 66.8044 162.401C77.8037 156.051 86.3301 152.136 94.2764 150.642C93.9352 149.175 93.7411 147.587 93.7543 145.931L93.7674 145.578C93.942 138.531 97.6078 133.112 101.95 133.48C106.293 133.848 109.668 139.863 109.494 146.91C109.461 148.236 109.311 149.511 109.05 150.694C116.91 152.232 125.345 156.137 136.196 162.401C134.056 158.462 132.146 154.911 130.323 151.53C127.45 149.303 124.454 146.405 118.342 143.268C122.543 144.36 125.551 145.619 127.895 147.027C109.353 112.505 107.852 107.918 101.493 92.9966Z" fill="white"/>
</g>
<path d="M189.334 145H185.818L192.219 126.818H196.285L202.695 145H199.179L194.323 130.547H194.181L189.334 145ZM189.449 137.871H199.037V140.517H189.449V137.871ZM204.948 145V131.364H208.064V133.636H208.206C208.454 132.849 208.881 132.243 209.484 131.816C210.094 131.384 210.789 131.168 211.571 131.168C211.748 131.168 211.946 131.177 212.165 131.195C212.39 131.207 212.577 131.228 212.725 131.257V134.213C212.589 134.166 212.372 134.125 212.077 134.089C211.787 134.048 211.505 134.027 211.233 134.027C210.647 134.027 210.12 134.154 209.653 134.409C209.191 134.657 208.827 135.004 208.561 135.447C208.295 135.891 208.161 136.403 208.161 136.983V145H204.948ZM220.246 145.266C218.885 145.266 217.716 144.967 216.74 144.37C215.769 143.772 215.02 142.946 214.494 141.893C213.973 140.833 213.712 139.614 213.712 138.235C213.712 136.85 213.979 135.628 214.511 134.569C215.044 133.503 215.796 132.675 216.766 132.083C217.743 131.485 218.897 131.186 220.229 131.186C221.335 131.186 222.315 131.39 223.167 131.799C224.025 132.201 224.709 132.772 225.218 133.512C225.727 134.246 226.017 135.104 226.088 136.087H223.016C222.892 135.43 222.596 134.882 222.129 134.444C221.667 134 221.048 133.778 220.273 133.778C219.616 133.778 219.039 133.956 218.542 134.311C218.045 134.66 217.657 135.163 217.379 135.82C217.107 136.477 216.97 137.264 216.97 138.182C216.97 139.111 217.107 139.91 217.379 140.579C217.651 141.242 218.033 141.754 218.524 142.115C219.021 142.47 219.604 142.647 220.273 142.647C220.747 142.647 221.17 142.559 221.543 142.381C221.921 142.198 222.238 141.934 222.492 141.591C222.747 141.248 222.922 140.83 223.016 140.339H226.088C226.011 141.304 225.727 142.159 225.236 142.905C224.745 143.645 224.076 144.225 223.229 144.645C222.383 145.059 221.389 145.266 220.246 145.266ZM231.941 137.01V145H228.727V126.818H231.87V133.681H232.03C232.349 132.911 232.843 132.305 233.512 131.861C234.187 131.411 235.045 131.186 236.087 131.186C237.034 131.186 237.859 131.384 238.564 131.781C239.268 132.177 239.812 132.757 240.197 133.521C240.588 134.284 240.783 135.217 240.783 136.317V145H237.569V136.815C237.569 135.897 237.333 135.184 236.859 134.675C236.391 134.16 235.735 133.903 234.888 133.903C234.32 133.903 233.811 134.027 233.361 134.276C232.917 134.518 232.568 134.87 232.314 135.332C232.065 135.794 231.941 136.353 231.941 137.01ZM250.402 145V126.818H253.696V142.239H261.704V145H250.402ZM264.42 145V131.364H267.634V145H264.42ZM266.036 129.428C265.527 129.428 265.089 129.26 264.722 128.922C264.355 128.579 264.172 128.168 264.172 127.688C264.172 127.203 264.355 126.792 264.722 126.454C265.089 126.111 265.527 125.939 266.036 125.939C266.551 125.939 266.989 126.111 267.35 126.454C267.717 126.792 267.9 127.203 267.9 127.688C267.9 128.168 267.717 128.579 267.35 128.922C266.989 129.26 266.551 129.428 266.036 129.428ZM274.153 137.01V145H270.939V131.364H274.011V133.681H274.17C274.484 132.917 274.984 132.311 275.671 131.861C276.363 131.411 277.218 131.186 278.236 131.186C279.178 131.186 279.997 131.387 280.696 131.79C281.4 132.192 281.944 132.775 282.329 133.539C282.72 134.302 282.912 135.228 282.906 136.317V145H279.692V136.815C279.692 135.903 279.456 135.19 278.982 134.675C278.515 134.16 277.867 133.903 277.038 133.903C276.476 133.903 275.976 134.027 275.538 134.276C275.106 134.518 274.765 134.87 274.517 135.332C274.274 135.794 274.153 136.353 274.153 137.01ZM294.865 139.265V131.364H298.078V145H294.962V142.576H294.82C294.513 143.34 294.006 143.964 293.302 144.45C292.604 144.935 291.743 145.178 290.719 145.178C289.825 145.178 289.035 144.979 288.348 144.583C287.668 144.18 287.135 143.597 286.75 142.834C286.366 142.064 286.173 141.135 286.173 140.046V131.364H289.387V139.549C289.387 140.413 289.624 141.1 290.097 141.609C290.571 142.118 291.192 142.372 291.962 142.372C292.435 142.372 292.894 142.257 293.338 142.026C293.782 141.795 294.146 141.452 294.43 140.996C294.72 140.534 294.865 139.957 294.865 139.265ZM304.011 131.364L306.763 136.397L309.56 131.364H312.96L308.849 138.182L313.031 145H309.648L306.763 140.091L303.905 145H300.495L304.65 138.182L300.602 131.364H304.011Z" fill="black"/>
<path d="M94.7401 14.2727C94.7401 16.1534 94.3878 17.7642 93.6832 19.1051C92.9844 20.4403 92.0298 21.4631 90.8196 22.1733C89.6151 22.8835 88.2486 23.2386 86.7202 23.2386C85.1918 23.2386 83.8224 22.8835 82.6122 22.1733C81.4077 21.4574 80.4531 20.4318 79.7486 19.0966C79.0497 17.7557 78.7003 16.1477 78.7003 14.2727C78.7003 12.392 79.0497 10.7841 79.7486 9.44886C80.4531 8.10795 81.4077 7.08239 82.6122 6.37216C83.8224 5.66193 85.1918 5.30682 86.7202 5.30682C88.2486 5.30682 89.6151 5.66193 90.8196 6.37216C92.0298 7.08239 92.9844 8.10795 93.6832 9.44886C94.3878 10.7841 94.7401 12.392 94.7401 14.2727ZM91.5611 14.2727C91.5611 12.9489 91.3537 11.8324 90.9389 10.9233C90.5298 10.0085 89.9616 9.31818 89.2344 8.85227C88.5071 8.38068 87.669 8.14489 86.7202 8.14489C85.7713 8.14489 84.9332 8.38068 84.206 8.85227C83.4787 9.31818 82.9077 10.0085 82.4929 10.9233C82.0838 11.8324 81.8793 12.9489 81.8793 14.2727C81.8793 15.5966 82.0838 16.7159 82.4929 17.6307C82.9077 18.5398 83.4787 19.2301 84.206 19.7017C84.9332 20.1676 85.7713 20.4006 86.7202 20.4006C87.669 20.4006 88.5071 20.1676 89.2344 19.7017C89.9616 19.2301 90.5298 18.5398 90.9389 17.6307C91.3537 16.7159 91.5611 15.5966 91.5611 14.2727ZM97.593 27.9091V9.90909H100.627V12.0739H100.806C100.965 11.7557 101.19 11.4176 101.479 11.0597C101.769 10.696 102.161 10.3864 102.656 10.1307C103.15 9.86932 103.781 9.73864 104.548 9.73864C105.559 9.73864 106.471 9.99716 107.283 10.5142C108.102 11.0256 108.749 11.7841 109.227 12.7898C109.71 13.7898 109.951 15.017 109.951 16.4716C109.951 17.9091 109.715 19.1307 109.244 20.1364C108.772 21.142 108.13 21.9091 107.317 22.4375C106.505 22.9659 105.585 23.2301 104.556 23.2301C103.806 23.2301 103.184 23.1051 102.69 22.8551C102.195 22.6051 101.798 22.304 101.496 21.9517C101.201 21.5937 100.971 21.2557 100.806 20.9375H100.678V27.9091H97.593ZM100.619 16.4545C100.619 17.3011 100.738 18.0426 100.977 18.679C101.221 19.3153 101.57 19.8125 102.025 20.1705C102.485 20.5227 103.042 20.6989 103.695 20.6989C104.377 20.6989 104.948 20.517 105.408 20.1534C105.869 19.7841 106.215 19.2812 106.448 18.6449C106.687 18.0028 106.806 17.2727 106.806 16.4545C106.806 15.642 106.69 14.9205 106.457 14.2898C106.224 13.6591 105.877 13.1648 105.417 12.8068C104.957 12.4489 104.383 12.2699 103.695 12.2699C103.036 12.2699 102.477 12.4432 102.016 12.7898C101.556 13.1364 101.207 13.6222 100.968 14.2472C100.735 14.8722 100.619 15.608 100.619 16.4545ZM118.388 23.2557C117.076 23.2557 115.942 22.983 114.988 22.4375C114.039 21.8864 113.309 21.108 112.798 20.1023C112.286 19.0909 112.031 17.9006 112.031 16.5312C112.031 15.1847 112.286 14.0028 112.798 12.9858C113.315 11.9631 114.036 11.1676 114.962 10.5994C115.888 10.0256 116.977 9.73864 118.227 9.73864C119.033 9.73864 119.795 9.86932 120.511 10.1307C121.232 10.3864 121.869 10.7841 122.42 11.3239C122.977 11.8636 123.414 12.5511 123.732 13.3864C124.05 14.2159 124.21 15.2045 124.21 16.3523V17.2983H113.479V15.2188H121.252C121.246 14.6278 121.119 14.1023 120.869 13.642C120.619 13.1761 120.269 12.8097 119.82 12.5426C119.377 12.2756 118.86 12.142 118.269 12.142C117.638 12.142 117.085 12.2955 116.607 12.6023C116.13 12.9034 115.758 13.3011 115.491 13.7955C115.229 14.2841 115.096 14.821 115.09 15.4062V17.2216C115.09 17.983 115.229 18.6364 115.508 19.1818C115.786 19.7216 116.175 20.1364 116.675 20.4261C117.175 20.7102 117.761 20.8523 118.431 20.8523C118.88 20.8523 119.286 20.7898 119.65 20.6648C120.013 20.5341 120.329 20.3438 120.596 20.0938C120.863 19.8438 121.065 19.5341 121.201 19.1648L124.082 19.4886C123.9 20.25 123.553 20.9148 123.042 21.483C122.536 22.0455 121.888 22.483 121.099 22.7955C120.309 23.1023 119.406 23.2557 118.388 23.2557ZM126.82 23V9.90909H129.811V12.0909H129.947C130.186 11.3352 130.595 10.7528 131.175 10.3438C131.76 9.92898 132.428 9.72159 133.178 9.72159C133.348 9.72159 133.538 9.73011 133.749 9.74716C133.964 9.75852 134.143 9.77841 134.286 9.80682V12.6449C134.155 12.5994 133.947 12.5597 133.663 12.5256C133.385 12.4858 133.115 12.4659 132.854 12.4659C132.291 12.4659 131.786 12.5881 131.337 12.8324C130.893 13.071 130.544 13.4034 130.288 13.8295C130.033 14.2557 129.905 14.7472 129.905 15.304V23H126.82ZM139.868 23.2642C139.038 23.2642 138.291 23.1165 137.626 22.821C136.967 22.5199 136.445 22.0767 136.058 21.4915C135.678 20.9062 135.487 20.1847 135.487 19.3267C135.487 18.5881 135.624 17.9773 135.896 17.4943C136.169 17.0114 136.541 16.625 137.013 16.3352C137.484 16.0455 138.016 15.8267 138.607 15.679C139.203 15.5256 139.82 15.4148 140.456 15.3466C141.223 15.267 141.845 15.196 142.322 15.1335C142.8 15.0653 143.146 14.9631 143.362 14.8267C143.584 14.6847 143.695 14.4659 143.695 14.1705V14.1193C143.695 13.4773 143.504 12.9801 143.124 12.6278C142.743 12.2756 142.195 12.0994 141.479 12.0994C140.723 12.0994 140.124 12.2642 139.68 12.5938C139.243 12.9233 138.947 13.3125 138.794 13.7614L135.913 13.3523C136.141 12.5568 136.516 11.892 137.038 11.358C137.561 10.8182 138.2 10.4148 138.956 10.1477C139.712 9.875 140.547 9.73864 141.462 9.73864C142.092 9.73864 142.72 9.8125 143.345 9.96023C143.97 10.108 144.541 10.3523 145.058 10.6932C145.575 11.0284 145.99 11.4858 146.303 12.0653C146.621 12.6449 146.78 13.3693 146.78 14.2386V23H143.814V21.2017H143.712C143.524 21.5653 143.26 21.9062 142.919 22.2244C142.584 22.5369 142.161 22.7898 141.649 22.983C141.143 23.1705 140.55 23.2642 139.868 23.2642ZM140.669 20.9972C141.288 20.9972 141.825 20.875 142.28 20.6307C142.734 20.3807 143.084 20.0511 143.328 19.642C143.578 19.233 143.703 18.7869 143.703 18.304V16.7614C143.607 16.8409 143.442 16.9148 143.209 16.983C142.982 17.0511 142.726 17.1108 142.442 17.1619C142.158 17.2131 141.876 17.2585 141.598 17.2983C141.32 17.3381 141.078 17.3722 140.874 17.4006C140.413 17.4631 140.001 17.5653 139.638 17.7074C139.274 17.8494 138.987 18.0483 138.777 18.304C138.567 18.554 138.462 18.8778 138.462 19.2756C138.462 19.8438 138.669 20.2727 139.084 20.5625C139.499 20.8523 140.027 20.9972 140.669 20.9972ZM156.419 9.90909V12.2955H148.893V9.90909H156.419ZM150.751 6.77273H153.837V19.0625C153.837 19.4773 153.899 19.7955 154.024 20.017C154.155 20.233 154.325 20.3807 154.536 20.4602C154.746 20.5398 154.979 20.5795 155.234 20.5795C155.428 20.5795 155.604 20.5653 155.763 20.5369C155.928 20.5085 156.053 20.483 156.138 20.4602L156.658 22.8722C156.493 22.929 156.257 22.9915 155.95 23.0597C155.649 23.1278 155.28 23.1676 154.842 23.179C154.07 23.2017 153.374 23.0852 152.754 22.8295C152.135 22.5682 151.643 22.1648 151.28 21.6193C150.922 21.0739 150.746 20.392 150.751 19.5739V6.77273ZM158.999 23V9.90909H162.085V23H158.999ZM160.55 8.05114C160.062 8.05114 159.641 7.8892 159.289 7.56534C158.937 7.23579 158.761 6.84091 158.761 6.38068C158.761 5.91477 158.937 5.51989 159.289 5.19602C159.641 4.86648 160.062 4.7017 160.55 4.7017C161.045 4.7017 161.465 4.86648 161.812 5.19602C162.164 5.51989 162.34 5.91477 162.34 6.38068C162.34 6.84091 162.164 7.23579 161.812 7.56534C161.465 7.8892 161.045 8.05114 160.55 8.05114ZM168.342 15.3295V23H165.257V9.90909H168.206V12.1335H168.359C168.661 11.4006 169.141 10.8182 169.8 10.3864C170.464 9.95455 171.286 9.73864 172.263 9.73864C173.166 9.73864 173.953 9.93182 174.624 10.3182C175.3 10.7045 175.822 11.2642 176.192 11.9972C176.567 12.7301 176.751 13.6193 176.746 14.6648V23H173.661V15.142C173.661 14.267 173.433 13.5824 172.979 13.0881C172.53 12.5937 171.908 12.3466 171.112 12.3466C170.572 12.3466 170.092 12.4659 169.672 12.7045C169.257 12.9375 168.93 13.2756 168.692 13.7188C168.459 14.1619 168.342 14.6989 168.342 15.3295ZM185.575 28.1818C184.467 28.1818 183.516 28.0313 182.72 27.7301C181.925 27.4347 181.286 27.0369 180.803 26.5369C180.32 26.0369 179.984 25.483 179.797 24.875L182.575 24.2017C182.7 24.4574 182.882 24.7102 183.121 24.9602C183.359 25.2159 183.68 25.4261 184.084 25.5909C184.493 25.7614 185.007 25.8466 185.626 25.8466C186.501 25.8466 187.226 25.6335 187.8 25.2074C188.374 24.7869 188.661 24.0938 188.661 23.1278V20.6477H188.507C188.348 20.9659 188.115 21.2926 187.808 21.6278C187.507 21.9631 187.107 22.2443 186.607 22.4716C186.112 22.6989 185.49 22.8125 184.74 22.8125C183.734 22.8125 182.822 22.5767 182.004 22.1051C181.192 21.6278 180.544 20.9176 180.061 19.9744C179.584 19.0256 179.345 17.8381 179.345 16.4119C179.345 14.9744 179.584 13.7614 180.061 12.7727C180.544 11.7784 181.195 11.0256 182.013 10.5142C182.831 9.99716 183.743 9.73864 184.749 9.73864C185.516 9.73864 186.146 9.86932 186.641 10.1307C187.141 10.3864 187.538 10.696 187.834 11.0597C188.129 11.4176 188.354 11.7557 188.507 12.0739H188.678V9.90909H191.72V23.2131C191.72 24.3324 191.453 25.2585 190.919 25.9915C190.385 26.7244 189.655 27.2727 188.729 27.6364C187.803 28 186.751 28.1818 185.575 28.1818ZM185.601 20.392C186.254 20.392 186.811 20.233 187.271 19.9148C187.732 19.5966 188.081 19.1392 188.32 18.5426C188.558 17.946 188.678 17.2301 188.678 16.3949C188.678 15.571 188.558 14.8494 188.32 14.2301C188.087 13.6108 187.74 13.1307 187.28 12.7898C186.825 12.4432 186.266 12.2699 185.601 12.2699C184.913 12.2699 184.339 12.4489 183.879 12.8068C183.419 13.1648 183.072 13.6562 182.839 14.2812C182.607 14.9006 182.49 15.6051 182.49 16.3949C182.49 17.196 182.607 17.8977 182.839 18.5C183.078 19.0966 183.428 19.5625 183.888 19.8977C184.354 20.2273 184.925 20.392 185.601 20.392ZM210.457 10.3438C210.378 9.59943 210.043 9.01989 209.452 8.60511C208.866 8.19034 208.105 7.98295 207.168 7.98295C206.509 7.98295 205.943 8.08239 205.472 8.28125C205 8.48011 204.639 8.75 204.389 9.09091C204.139 9.43182 204.011 9.82102 204.006 10.2585C204.006 10.6222 204.088 10.9375 204.253 11.2045C204.423 11.4716 204.653 11.6989 204.943 11.8864C205.233 12.0682 205.554 12.2216 205.906 12.3466C206.259 12.4716 206.614 12.5767 206.972 12.6619L208.608 13.071C209.267 13.2244 209.901 13.4318 210.509 13.6932C211.122 13.9545 211.67 14.2841 212.153 14.6818C212.642 15.0795 213.028 15.5597 213.312 16.1222C213.597 16.6847 213.739 17.3437 213.739 18.0994C213.739 19.1222 213.477 20.0227 212.955 20.8011C212.432 21.5739 211.676 22.179 210.688 22.6165C209.705 23.0483 208.514 23.2642 207.116 23.2642C205.759 23.2642 204.58 23.054 203.58 22.6335C202.585 22.2131 201.807 21.5994 201.244 20.7926C200.688 19.9858 200.386 19.0028 200.341 17.8438H203.452C203.497 18.4517 203.685 18.9574 204.014 19.3608C204.344 19.7642 204.773 20.0653 205.301 20.2642C205.835 20.4631 206.432 20.5625 207.091 20.5625C207.778 20.5625 208.381 20.4602 208.898 20.2557C209.42 20.0455 209.83 19.7557 210.125 19.3864C210.42 19.0114 210.571 18.5739 210.577 18.0739C210.571 17.6193 210.438 17.2443 210.176 16.9489C209.915 16.6477 209.548 16.3977 209.077 16.1989C208.611 15.9943 208.065 15.8125 207.44 15.6534L205.455 15.142C204.017 14.7727 202.881 14.2131 202.045 13.4631C201.216 12.7074 200.801 11.7045 200.801 10.4545C200.801 9.42614 201.08 8.52557 201.636 7.75284C202.199 6.98011 202.963 6.38068 203.929 5.95454C204.895 5.52273 205.989 5.30682 207.21 5.30682C208.449 5.30682 209.534 5.52273 210.466 5.95454C211.403 6.38068 212.139 6.97443 212.673 7.73579C213.207 8.49148 213.483 9.3608 213.5 10.3438H210.457ZM218.339 27.9091C217.918 27.9091 217.529 27.875 217.171 27.8068C216.819 27.7443 216.538 27.6705 216.327 27.5852L217.043 25.1818C217.492 25.3125 217.893 25.375 218.245 25.3693C218.597 25.3636 218.907 25.2528 219.174 25.0369C219.447 24.8267 219.677 24.4744 219.864 23.9801L220.129 23.2727L215.381 9.90909H218.654L221.671 19.7955H221.808L224.833 9.90909H228.114L222.873 24.5852C222.629 25.2784 222.305 25.8722 221.901 26.3665C221.498 26.8665 221.004 27.2472 220.418 27.5085C219.839 27.7756 219.146 27.9091 218.339 27.9091ZM240.596 13.3693L237.783 13.6761C237.704 13.392 237.565 13.125 237.366 12.875C237.173 12.625 236.911 12.4233 236.582 12.2699C236.252 12.1165 235.849 12.0398 235.371 12.0398C234.729 12.0398 234.19 12.179 233.752 12.4574C233.32 12.7358 233.107 13.0966 233.113 13.5398C233.107 13.9205 233.246 14.2301 233.531 14.4688C233.82 14.7074 234.298 14.9034 234.962 15.0568L237.195 15.5341C238.434 15.8011 239.354 16.2244 239.957 16.804C240.565 17.3835 240.871 18.142 240.877 19.0795C240.871 19.9034 240.63 20.6307 240.153 21.2614C239.681 21.8864 239.025 22.375 238.184 22.7273C237.343 23.0795 236.377 23.2557 235.286 23.2557C233.684 23.2557 232.394 22.9205 231.417 22.25C230.44 21.5739 229.857 20.6335 229.67 19.429L232.678 19.1392C232.815 19.7301 233.104 20.1761 233.548 20.4773C233.991 20.7784 234.567 20.929 235.278 20.929C236.011 20.929 236.599 20.7784 237.042 20.4773C237.491 20.1761 237.715 19.804 237.715 19.3608C237.715 18.9858 237.57 18.6761 237.281 18.4318C236.996 18.1875 236.553 18 235.951 17.8693L233.718 17.4006C232.462 17.1392 231.533 16.6989 230.931 16.0795C230.329 15.4545 230.031 14.6648 230.036 13.7102C230.031 12.9034 230.249 12.2045 230.692 11.6136C231.141 11.017 231.763 10.5568 232.559 10.233C233.36 9.90341 234.283 9.73864 235.329 9.73864C236.863 9.73864 238.07 10.0653 238.951 10.7188C239.837 11.3722 240.386 12.2557 240.596 13.3693ZM249.958 9.90909V12.2955H242.433V9.90909H249.958ZM244.29 6.77273H247.376V19.0625C247.376 19.4773 247.438 19.7955 247.563 20.017C247.694 20.233 247.864 20.3807 248.075 20.4602C248.285 20.5398 248.518 20.5795 248.773 20.5795C248.967 20.5795 249.143 20.5653 249.302 20.5369C249.467 20.5085 249.592 20.483 249.677 20.4602L250.197 22.8722C250.032 22.929 249.796 22.9915 249.489 23.0597C249.188 23.1278 248.819 23.1676 248.381 23.179C247.609 23.2017 246.913 23.0852 246.293 22.8295C245.674 22.5682 245.183 22.1648 244.819 21.6193C244.461 21.0739 244.285 20.392 244.29 19.5739V6.77273ZM258.193 23.2557C256.881 23.2557 255.747 22.983 254.793 22.4375C253.844 21.8864 253.114 21.108 252.602 20.1023C252.091 19.0909 251.835 17.9006 251.835 16.5312C251.835 15.1847 252.091 14.0028 252.602 12.9858C253.119 11.9631 253.841 11.1676 254.767 10.5994C255.693 10.0256 256.781 9.73864 258.031 9.73864C258.838 9.73864 259.599 9.86932 260.315 10.1307C261.037 10.3864 261.673 10.7841 262.224 11.3239C262.781 11.8636 263.219 12.5511 263.537 13.3864C263.855 14.2159 264.014 15.2045 264.014 16.3523V17.2983H253.284V15.2188H261.057C261.051 14.6278 260.923 14.1023 260.673 13.642C260.423 13.1761 260.074 12.8097 259.625 12.5426C259.182 12.2756 258.665 12.142 258.074 12.142C257.443 12.142 256.889 12.2955 256.412 12.6023C255.935 12.9034 255.563 13.3011 255.295 13.7955C255.034 14.2841 254.901 14.821 254.895 15.4062V17.2216C254.895 17.983 255.034 18.6364 255.312 19.1818C255.591 19.7216 255.98 20.1364 256.48 20.4261C256.98 20.7102 257.565 20.8523 258.236 20.8523C258.685 20.8523 259.091 20.7898 259.455 20.6648C259.818 20.5341 260.134 20.3438 260.401 20.0938C260.668 19.8438 260.869 19.5341 261.006 19.1648L263.886 19.4886C263.705 20.25 263.358 20.9148 262.847 21.483C262.341 22.0455 261.693 22.483 260.903 22.7955C260.114 23.1023 259.21 23.2557 258.193 23.2557ZM266.624 23V9.90909H269.573V12.1335H269.727C269.999 11.3835 270.451 10.7983 271.082 10.3778C271.712 9.9517 272.465 9.73864 273.34 9.73864C274.227 9.73864 274.974 9.95455 275.582 10.3864C276.195 10.8125 276.627 11.3949 276.877 12.1335H277.013C277.303 11.4062 277.792 10.8267 278.479 10.3949C279.173 9.95739 279.994 9.73864 280.942 9.73864C282.147 9.73864 283.13 10.1193 283.891 10.8807C284.653 11.642 285.033 12.7528 285.033 14.2131V23H281.94V14.6903C281.94 13.8778 281.724 13.2841 281.292 12.9091C280.86 12.5284 280.332 12.3381 279.707 12.3381C278.962 12.3381 278.38 12.571 277.96 13.0369C277.545 13.4972 277.337 14.0966 277.337 14.8352V23H274.312V14.5625C274.312 13.8864 274.107 13.3466 273.698 12.9432C273.295 12.5398 272.766 12.3381 272.113 12.3381C271.67 12.3381 271.266 12.4517 270.903 12.679C270.539 12.9006 270.249 13.2159 270.033 13.625C269.817 14.0284 269.71 14.5 269.71 15.0398V23H266.624Z" fill="black"/>
<defs>
<clipPath id="clip0_1_251">
<rect width="103" height="103" fill="white" transform="translate(50 85)"/>
</clipPath>
</defs>
</svg>
