<svg width="659" height="237" viewBox="0 0 659 237" fill="none" xmlns="http://www.w3.org/2000/svg">
<rect y="37" width="659" height="200" rx="60" fill="#F8F8F8"/>
<path d="M181.477 196V183.2H189.802V185.144H183.795V188.619H189.37V190.562H183.795V194.056H189.852V196H181.477ZM194.33 183.2V196H192.067V183.2H194.33ZM200.906 196.188C199.944 196.188 199.112 195.988 198.412 195.587C197.717 195.183 197.181 194.612 196.806 193.875C196.431 193.133 196.244 192.26 196.244 191.256C196.244 190.269 196.431 189.402 196.806 188.656C197.185 187.906 197.715 187.323 198.394 186.906C199.073 186.485 199.871 186.275 200.787 186.275C201.379 186.275 201.938 186.371 202.463 186.562C202.992 186.75 203.458 187.042 203.863 187.437C204.271 187.833 204.592 188.337 204.825 188.95C205.058 189.558 205.175 190.283 205.175 191.125V191.819H197.306V190.294H203.006C203.002 189.86 202.908 189.475 202.725 189.137C202.542 188.796 202.285 188.527 201.956 188.331C201.631 188.135 201.252 188.037 200.819 188.037C200.356 188.037 199.95 188.15 199.6 188.375C199.25 188.596 198.977 188.887 198.781 189.25C198.59 189.608 198.492 190.002 198.487 190.431V191.762C198.487 192.321 198.59 192.8 198.794 193.2C198.998 193.596 199.283 193.9 199.65 194.112C200.017 194.321 200.446 194.425 200.938 194.425C201.267 194.425 201.565 194.379 201.831 194.287C202.098 194.192 202.329 194.052 202.525 193.869C202.721 193.685 202.869 193.458 202.969 193.187L205.081 193.425C204.948 193.983 204.694 194.471 204.319 194.887C203.948 195.3 203.473 195.621 202.894 195.85C202.315 196.075 201.652 196.188 200.906 196.188ZM211.277 196.188C210.318 196.188 209.495 195.977 208.808 195.556C208.124 195.135 207.597 194.554 207.227 193.812C206.86 193.067 206.677 192.208 206.677 191.237C206.677 190.262 206.864 189.402 207.239 188.656C207.614 187.906 208.143 187.323 208.827 186.906C209.514 186.485 210.327 186.275 211.264 186.275C212.043 186.275 212.733 186.419 213.333 186.706C213.937 186.99 214.418 187.392 214.777 187.912C215.135 188.429 215.339 189.033 215.389 189.725H213.227C213.139 189.262 212.931 188.877 212.602 188.569C212.277 188.256 211.841 188.1 211.295 188.1C210.833 188.1 210.427 188.225 210.077 188.475C209.727 188.721 209.454 189.075 209.258 189.537C209.066 190 208.97 190.554 208.97 191.2C208.97 191.854 209.066 192.417 209.258 192.887C209.449 193.354 209.718 193.715 210.064 193.969C210.414 194.219 210.824 194.344 211.295 194.344C211.629 194.344 211.927 194.281 212.189 194.156C212.456 194.027 212.679 193.842 212.858 193.6C213.037 193.358 213.16 193.065 213.227 192.719H215.389C215.335 193.398 215.135 194 214.789 194.525C214.443 195.046 213.972 195.454 213.377 195.75C212.781 196.042 212.081 196.188 211.277 196.188ZM222.041 186.4V188.15H216.522V186.4H222.041ZM217.884 184.1H220.147V193.112C220.147 193.417 220.193 193.65 220.284 193.812C220.38 193.971 220.505 194.079 220.659 194.137C220.814 194.196 220.984 194.225 221.172 194.225C221.314 194.225 221.443 194.215 221.559 194.194C221.68 194.173 221.772 194.154 221.834 194.137L222.216 195.906C222.095 195.948 221.922 195.994 221.697 196.044C221.476 196.094 221.205 196.123 220.884 196.131C220.318 196.148 219.807 196.062 219.353 195.875C218.899 195.683 218.539 195.387 218.272 194.987C218.009 194.587 217.88 194.087 217.884 193.487V184.1ZM223.933 196V186.4H226.127V188H226.227C226.402 187.446 226.702 187.019 227.127 186.719C227.556 186.415 228.045 186.262 228.595 186.262C228.72 186.262 228.86 186.269 229.014 186.281C229.172 186.29 229.304 186.304 229.408 186.325V188.406C229.312 188.373 229.16 188.344 228.952 188.319C228.747 188.29 228.549 188.275 228.358 188.275C227.945 188.275 227.574 188.365 227.245 188.544C226.92 188.719 226.664 188.962 226.477 189.275C226.289 189.587 226.195 189.948 226.195 190.356V196H223.933ZM234.703 196.188C233.766 196.188 232.953 195.981 232.266 195.569C231.578 195.156 231.045 194.579 230.666 193.837C230.291 193.096 230.103 192.229 230.103 191.237C230.103 190.246 230.291 189.377 230.666 188.631C231.045 187.885 231.578 187.306 232.266 186.894C232.953 186.481 233.766 186.275 234.703 186.275C235.641 186.275 236.453 186.481 237.141 186.894C237.828 187.306 238.359 187.885 238.734 188.631C239.114 189.377 239.303 190.246 239.303 191.237C239.303 192.229 239.114 193.096 238.734 193.837C238.359 194.579 237.828 195.156 237.141 195.569C236.453 195.981 235.641 196.188 234.703 196.188ZM234.716 194.375C235.224 194.375 235.649 194.235 235.991 193.956C236.332 193.673 236.586 193.294 236.753 192.819C236.924 192.344 237.009 191.815 237.009 191.231C237.009 190.644 236.924 190.112 236.753 189.637C236.586 189.158 236.332 188.777 235.991 188.494C235.649 188.21 235.224 188.069 234.716 188.069C234.195 188.069 233.761 188.21 233.416 188.494C233.074 188.777 232.818 189.158 232.647 189.637C232.48 190.112 232.397 190.644 232.397 191.231C232.397 191.815 232.48 192.344 232.647 192.819C232.818 193.294 233.074 193.673 233.416 193.956C233.761 194.235 234.195 194.375 234.716 194.375ZM243.486 190.375V196H241.223V186.4H243.386V188.031H243.498C243.719 187.494 244.071 187.067 244.555 186.75C245.042 186.433 245.644 186.275 246.361 186.275C247.023 186.275 247.601 186.417 248.092 186.7C248.588 186.983 248.971 187.394 249.242 187.931C249.517 188.469 249.653 189.121 249.648 189.887V196H247.386V190.237C247.386 189.596 247.219 189.094 246.886 188.731C246.557 188.369 246.101 188.187 245.517 188.187C245.121 188.187 244.769 188.275 244.461 188.45C244.157 188.621 243.917 188.869 243.742 189.194C243.571 189.519 243.486 189.912 243.486 190.375Z" fill="black"/>
<path d="M69.4164 196V183.2H74.2164C75.1997 183.2 76.0247 183.371 76.6914 183.712C77.3622 184.054 77.8685 184.533 78.2102 185.15C78.556 185.762 78.7289 186.477 78.7289 187.294C78.7289 188.115 78.5539 188.827 78.2039 189.431C77.8581 190.031 77.3477 190.496 76.6727 190.825C75.9977 191.15 75.1685 191.312 74.1852 191.312H70.7664V189.387H73.8727C74.4477 189.387 74.9185 189.308 75.2852 189.15C75.6518 188.987 75.9227 188.752 76.0977 188.444C76.2768 188.131 76.3664 187.748 76.3664 187.294C76.3664 186.84 76.2768 186.452 76.0977 186.131C75.9185 185.806 75.6456 185.56 75.2789 185.394C74.9122 185.223 74.4393 185.137 73.8602 185.137H71.7352V196H69.4164ZM76.0289 190.2L79.1977 196H76.6102L73.4977 190.2H76.0289ZM84.8758 196.188C83.9133 196.188 83.082 195.988 82.382 195.587C81.6862 195.183 81.1508 194.612 80.7758 193.875C80.4008 193.133 80.2133 192.26 80.2133 191.256C80.2133 190.269 80.4008 189.402 80.7758 188.656C81.1549 187.906 81.6841 187.323 82.3633 186.906C83.0424 186.485 83.8404 186.275 84.757 186.275C85.3487 186.275 85.907 186.371 86.432 186.562C86.9612 186.75 87.4279 187.042 87.832 187.437C88.2404 187.833 88.5612 188.337 88.7945 188.95C89.0279 189.558 89.1445 190.283 89.1445 191.125V191.819H81.2758V190.294H86.9758C86.9716 189.86 86.8779 189.475 86.6945 189.137C86.5112 188.796 86.2549 188.527 85.9258 188.331C85.6008 188.135 85.2216 188.037 84.7883 188.037C84.3258 188.037 83.9195 188.15 83.5695 188.375C83.2195 188.596 82.9466 188.887 82.7508 189.25C82.5591 189.608 82.4612 190.002 82.457 190.431V191.762C82.457 192.321 82.5591 192.8 82.7633 193.2C82.9674 193.596 83.2529 193.9 83.6195 194.112C83.9862 194.321 84.4154 194.425 84.907 194.425C85.2362 194.425 85.5341 194.379 85.8008 194.287C86.0674 194.192 86.2987 194.052 86.4945 193.869C86.6904 193.685 86.8383 193.458 86.9383 193.187L89.0508 193.425C88.9174 193.983 88.6633 194.471 88.2883 194.887C87.9174 195.3 87.4424 195.621 86.8633 195.85C86.2841 196.075 85.6216 196.188 84.8758 196.188ZM93.8211 196.194C93.2128 196.194 92.6648 196.085 92.1773 195.869C91.694 195.648 91.3107 195.323 91.0273 194.894C90.7482 194.465 90.6086 193.935 90.6086 193.306C90.6086 192.765 90.7086 192.317 90.9086 191.962C91.1086 191.608 91.3815 191.325 91.7273 191.112C92.0732 190.9 92.4628 190.74 92.8961 190.631C93.3336 190.519 93.7857 190.437 94.2523 190.387C94.8148 190.329 95.2711 190.277 95.6211 190.231C95.9711 190.181 96.2253 190.106 96.3836 190.006C96.5461 189.902 96.6273 189.742 96.6273 189.525V189.487C96.6273 189.017 96.4878 188.652 96.2086 188.394C95.9294 188.135 95.5273 188.006 95.0023 188.006C94.4482 188.006 94.0086 188.127 93.6836 188.369C93.3628 188.61 93.1461 188.896 93.0336 189.225L90.9211 188.925C91.0878 188.342 91.3628 187.854 91.7461 187.462C92.1294 187.067 92.5982 186.771 93.1523 186.575C93.7065 186.375 94.319 186.275 94.9898 186.275C95.4523 186.275 95.9128 186.329 96.3711 186.437C96.8294 186.546 97.2482 186.725 97.6273 186.975C98.0065 187.221 98.3107 187.556 98.5398 187.981C98.7732 188.406 98.8898 188.937 98.8898 189.575V196H96.7148V194.681H96.6398C96.5023 194.948 96.3086 195.198 96.0586 195.431C95.8128 195.66 95.5023 195.846 95.1273 195.987C94.7565 196.125 94.3211 196.194 93.8211 196.194ZM94.4086 194.531C94.8628 194.531 95.2565 194.442 95.5898 194.262C95.9232 194.079 96.1794 193.837 96.3586 193.537C96.5419 193.237 96.6336 192.91 96.6336 192.556V191.425C96.5628 191.483 96.4419 191.537 96.2711 191.587C96.1044 191.637 95.9169 191.681 95.7086 191.719C95.5003 191.756 95.294 191.79 95.0898 191.819C94.8857 191.848 94.7086 191.873 94.5586 191.894C94.2211 191.94 93.919 192.015 93.6523 192.119C93.3857 192.223 93.1753 192.369 93.0211 192.556C92.8669 192.74 92.7898 192.977 92.7898 193.269C92.7898 193.685 92.9419 194 93.2461 194.212C93.5503 194.425 93.9378 194.531 94.4086 194.531ZM105.352 196.188C104.394 196.188 103.571 195.977 102.884 195.556C102.2 195.135 101.673 194.554 101.302 193.812C100.936 193.067 100.752 192.208 100.752 191.237C100.752 190.262 100.94 189.402 101.315 188.656C101.69 187.906 102.219 187.323 102.902 186.906C103.59 186.485 104.402 186.275 105.34 186.275C106.119 186.275 106.809 186.419 107.409 186.706C108.013 186.99 108.494 187.392 108.852 187.912C109.211 188.429 109.415 189.033 109.465 189.725H107.302C107.215 189.262 107.007 188.877 106.677 188.569C106.352 188.256 105.917 188.1 105.371 188.1C104.909 188.1 104.502 188.225 104.152 188.475C103.802 188.721 103.529 189.075 103.334 189.537C103.142 190 103.046 190.554 103.046 191.2C103.046 191.854 103.142 192.417 103.334 192.887C103.525 193.354 103.794 193.715 104.14 193.969C104.49 194.219 104.9 194.344 105.371 194.344C105.704 194.344 106.002 194.281 106.265 194.156C106.532 194.027 106.754 193.842 106.934 193.6C107.113 193.358 107.236 193.065 107.302 192.719H109.465C109.411 193.398 109.211 194 108.865 194.525C108.519 195.046 108.048 195.454 107.452 195.75C106.857 196.042 106.157 196.188 105.352 196.188ZM116.116 186.4V188.15H110.598V186.4H116.116ZM111.96 184.1H114.223V193.112C114.223 193.417 114.268 193.65 114.36 193.812C114.456 193.971 114.581 194.079 114.735 194.137C114.889 194.196 115.06 194.225 115.248 194.225C115.389 194.225 115.518 194.215 115.635 194.194C115.756 194.173 115.848 194.154 115.91 194.137L116.291 195.906C116.171 195.948 115.998 195.994 115.773 196.044C115.552 196.094 115.281 196.123 114.96 196.131C114.393 196.148 113.883 196.062 113.429 195.875C112.975 195.683 112.614 195.387 112.348 194.987C112.085 194.587 111.956 194.087 111.96 193.487V184.1Z" fill="black"/>
<path d="M298.092 1.54545H301.254V12.9489C301.254 14.1989 300.958 15.2983 300.367 16.2472C299.782 17.196 298.958 17.9375 297.896 18.4716C296.833 19 295.592 19.2642 294.171 19.2642C292.745 19.2642 291.501 19 290.438 18.4716C289.376 17.9375 288.552 17.196 287.967 16.2472C287.381 15.2983 287.089 14.1989 287.089 12.9489V1.54545H290.251V12.6847C290.251 13.4119 290.41 14.0597 290.728 14.6278C291.052 15.196 291.506 15.642 292.092 15.9659C292.677 16.2841 293.37 16.4432 294.171 16.4432C294.972 16.4432 295.665 16.2841 296.251 15.9659C296.842 15.642 297.296 15.196 297.614 14.6278C297.933 14.0597 298.092 13.4119 298.092 12.6847V1.54545ZM311.091 5.90909V8.29545H303.565V5.90909H311.091ZM305.423 2.77273H308.509V15.0625C308.509 15.4773 308.571 15.7955 308.696 16.017C308.827 16.233 308.997 16.3807 309.207 16.4602C309.418 16.5398 309.651 16.5795 309.906 16.5795C310.099 16.5795 310.276 16.5653 310.435 16.5369C310.599 16.5085 310.724 16.483 310.81 16.4602L311.33 18.8722C311.165 18.929 310.929 18.9915 310.622 19.0597C310.321 19.1278 309.952 19.1676 309.514 19.179C308.741 19.2017 308.045 19.0852 307.426 18.8295C306.807 18.5682 306.315 18.1648 305.952 17.6193C305.594 17.0739 305.418 16.392 305.423 15.5739V2.77273ZM313.671 19V5.90909H316.756V19H313.671ZM315.222 4.05114C314.734 4.05114 314.313 3.8892 313.961 3.56534C313.609 3.23579 313.433 2.84091 313.433 2.38068C313.433 1.91477 313.609 1.51989 313.961 1.19602C314.313 0.866477 314.734 0.701704 315.222 0.701704C315.717 0.701704 316.137 0.866477 316.484 1.19602C316.836 1.51989 317.012 1.91477 317.012 2.38068C317.012 2.84091 316.836 3.23579 316.484 3.56534C316.137 3.8892 315.717 4.05114 315.222 4.05114ZM323.014 1.54545V19H319.929V1.54545H323.014ZM326.187 19V5.90909H329.272V19H326.187ZM327.738 4.05114C327.249 4.05114 326.829 3.8892 326.477 3.56534C326.124 3.23579 325.948 2.84091 325.948 2.38068C325.948 1.91477 326.124 1.51989 326.477 1.19602C326.829 0.866477 327.249 0.701704 327.738 0.701704C328.232 0.701704 328.653 0.866477 328.999 1.19602C329.352 1.51989 329.528 1.91477 329.528 2.38068C329.528 2.84091 329.352 3.23579 328.999 3.56534C328.653 3.8892 328.232 4.05114 327.738 4.05114ZM338.982 5.90909V8.29545H331.456V5.90909H338.982ZM333.314 2.77273H336.399V15.0625C336.399 15.4773 336.462 15.7955 336.587 16.017C336.717 16.233 336.888 16.3807 337.098 16.4602C337.308 16.5398 337.541 16.5795 337.797 16.5795C337.99 16.5795 338.166 16.5653 338.325 16.5369C338.49 16.5085 338.615 16.483 338.7 16.4602L339.22 18.8722C339.055 18.929 338.82 18.9915 338.513 19.0597C338.212 19.1278 337.842 19.1676 337.405 19.179C336.632 19.2017 335.936 19.0852 335.317 18.8295C334.697 18.5682 334.206 18.1648 333.842 17.6193C333.484 17.0739 333.308 16.392 333.314 15.5739V2.77273ZM341.562 19V5.90909H344.647V19H341.562ZM343.113 4.05114C342.624 4.05114 342.204 3.8892 341.852 3.56534C341.499 3.23579 341.323 2.84091 341.323 2.38068C341.323 1.91477 341.499 1.51989 341.852 1.19602C342.204 0.866477 342.624 0.701704 343.113 0.701704C343.607 0.701704 344.028 0.866477 344.374 1.19602C344.727 1.51989 344.903 1.91477 344.903 2.38068C344.903 2.84091 344.727 3.23579 344.374 3.56534C344.028 3.8892 343.607 4.05114 343.113 4.05114ZM353.615 19.2557C352.303 19.2557 351.169 18.983 350.214 18.4375C349.266 17.8864 348.536 17.108 348.024 16.1023C347.513 15.0909 347.257 13.9006 347.257 12.5312C347.257 11.1847 347.513 10.0028 348.024 8.9858C348.541 7.96307 349.263 7.16761 350.189 6.59943C351.115 6.02557 352.203 5.73864 353.453 5.73864C354.26 5.73864 355.021 5.86932 355.737 6.13068C356.459 6.38636 357.095 6.78409 357.646 7.32386C358.203 7.86364 358.641 8.55114 358.959 9.38636C359.277 10.2159 359.436 11.2045 359.436 12.3523V13.2983H348.706V11.2188H356.479C356.473 10.6278 356.345 10.1023 356.095 9.64205C355.845 9.17614 355.496 8.80966 355.047 8.54261C354.604 8.27557 354.087 8.14205 353.496 8.14205C352.865 8.14205 352.311 8.29545 351.834 8.60227C351.357 8.90341 350.984 9.30114 350.717 9.79545C350.456 10.2841 350.322 10.821 350.317 11.4062V13.2216C350.317 13.983 350.456 14.6364 350.734 15.1818C351.013 15.7216 351.402 16.1364 351.902 16.4261C352.402 16.7102 352.987 16.8523 353.658 16.8523C354.107 16.8523 354.513 16.7898 354.876 16.6648C355.24 16.5341 355.555 16.3438 355.822 16.0938C356.089 15.8438 356.291 15.5341 356.428 15.1648L359.308 15.4886C359.126 16.25 358.78 16.9148 358.268 17.483C357.763 18.0455 357.115 18.483 356.325 18.7955C355.536 19.1023 354.632 19.2557 353.615 19.2557ZM372.393 9.36932L369.58 9.67614C369.501 9.39205 369.362 9.125 369.163 8.875C368.969 8.625 368.708 8.4233 368.379 8.26989C368.049 8.11648 367.646 8.03977 367.168 8.03977C366.526 8.03977 365.987 8.17898 365.549 8.45739C365.117 8.7358 364.904 9.09659 364.91 9.53977C364.904 9.92045 365.043 10.2301 365.327 10.4688C365.617 10.7074 366.094 10.9034 366.759 11.0568L368.992 11.5341C370.231 11.8011 371.151 12.2244 371.754 12.804C372.362 13.3835 372.668 14.142 372.674 15.0795C372.668 15.9034 372.427 16.6307 371.95 17.2614C371.478 17.8864 370.822 18.375 369.981 18.7273C369.14 19.0795 368.174 19.2557 367.083 19.2557C365.481 19.2557 364.191 18.9205 363.214 18.25C362.237 17.5739 361.654 16.6335 361.467 15.429L364.475 15.1392C364.612 15.7301 364.901 16.1761 365.344 16.4773C365.788 16.7784 366.364 16.929 367.075 16.929C367.808 16.929 368.396 16.7784 368.839 16.4773C369.288 16.1761 369.512 15.804 369.512 15.3608C369.512 14.9858 369.367 14.6761 369.077 14.4318C368.793 14.1875 368.35 14 367.748 13.8693L365.515 13.4006C364.259 13.1392 363.33 12.6989 362.728 12.0795C362.126 11.4545 361.827 10.6648 361.833 9.71023C361.827 8.90341 362.046 8.20455 362.489 7.61364C362.938 7.01705 363.56 6.55682 364.356 6.23295C365.157 5.90341 366.08 5.73864 367.126 5.73864C368.66 5.73864 369.867 6.06534 370.748 6.71875C371.634 7.37216 372.183 8.25568 372.393 9.36932Z" fill="black"/>
<g clip-path="url(#clip0_1_181)">
<path d="M92 131.13C96.4303 131.13 100.022 127.533 100.022 123.096C100.022 118.659 96.4303 115.063 92 115.063C87.5697 115.063 83.9783 118.659 83.9783 123.096C83.9783 127.533 87.5697 131.13 92 131.13Z" fill="#61DAFB"/>
<path d="M92 139.555C115.772 139.555 135.043 132.186 135.043 123.096C135.043 114.006 115.772 106.637 92 106.637C68.2277 106.637 48.9565 114.006 48.9565 123.096C48.9565 132.186 68.2277 139.555 92 139.555Z" stroke="#61DAFB"/>
<path d="M77.767 131.326C89.6532 151.943 105.661 164.973 113.522 160.428C121.382 155.883 118.119 135.484 106.233 114.867C94.3468 94.249 78.3389 81.2195 70.4782 85.7645C62.6176 90.3096 65.8809 110.708 77.767 131.326Z" stroke="#61DAFB"/>
<path d="M77.7671 114.867C65.8809 135.484 62.6176 155.883 70.4783 160.428C78.3389 164.973 94.3468 151.943 106.233 131.326C118.119 110.708 121.382 90.3096 113.522 85.7645C105.661 81.2195 89.6532 94.249 77.7671 114.867Z" stroke="#61DAFB"/>
</g>
<g clip-path="url(#clip1_1_181)">
<path d="M215 168C239.853 168 260 147.853 260 123C260 98.1472 239.853 78 215 78C190.147 78 170 98.1472 170 123C170 147.853 190.147 168 215 168Z" fill="#2B2E3A"/>
<path d="M205.333 103.204C196.19 101.539 188.962 103.281 186.08 108.271C183.931 111.995 184.545 116.932 187.571 122.209C187.631 122.319 187.712 122.415 187.809 122.493C187.907 122.571 188.019 122.629 188.139 122.663C188.259 122.697 188.385 122.706 188.509 122.691C188.633 122.676 188.753 122.636 188.861 122.574C188.969 122.512 189.064 122.429 189.14 122.329C189.215 122.23 189.271 122.117 189.302 121.996C189.333 121.875 189.34 121.749 189.322 121.626C189.304 121.502 189.262 121.384 189.197 121.277C186.472 116.523 185.942 112.262 187.704 109.209C190.098 105.064 196.545 103.509 204.997 105.048C205.239 105.089 205.489 105.032 205.69 104.89C205.891 104.749 206.029 104.534 206.073 104.291C206.117 104.049 206.064 103.799 205.926 103.596C205.787 103.392 205.574 103.251 205.333 103.204V103.204ZM192.325 128.624C196.022 132.686 200.825 136.497 206.302 139.659C219.564 147.316 233.683 149.362 240.641 144.618C240.745 144.55 240.834 144.461 240.904 144.358C240.973 144.255 241.022 144.139 241.046 144.016C241.07 143.894 241.07 143.769 241.045 143.647C241.02 143.525 240.971 143.409 240.901 143.306C240.831 143.203 240.741 143.115 240.636 143.047C240.532 142.98 240.415 142.933 240.292 142.911C240.17 142.889 240.044 142.892 239.923 142.919C239.801 142.946 239.686 142.997 239.584 143.069C233.357 147.315 219.945 145.371 207.24 138.035C201.926 134.968 197.275 131.278 193.712 127.362C193.629 127.27 193.529 127.196 193.418 127.143C193.306 127.09 193.186 127.06 193.062 127.054C192.939 127.048 192.816 127.066 192.699 127.108C192.583 127.149 192.477 127.214 192.385 127.297C192.294 127.38 192.22 127.48 192.167 127.592C192.115 127.704 192.085 127.825 192.08 127.948C192.074 128.071 192.093 128.194 192.135 128.31C192.177 128.426 192.242 128.533 192.325 128.624V128.624Z" fill="#9FEAF9"/>
<path d="M238.421 127.483C244.407 120.411 246.498 113.299 243.622 108.319C241.507 104.655 237.035 102.72 231.091 102.643C230.845 102.643 230.608 102.74 230.433 102.914C230.258 103.087 230.158 103.322 230.155 103.568C230.152 103.815 230.246 104.052 230.416 104.23C230.587 104.408 230.821 104.511 231.067 104.518C236.412 104.587 240.265 106.254 241.999 109.257C244.387 113.393 242.523 119.736 236.99 126.272C236.909 126.366 236.847 126.475 236.808 126.592C236.769 126.71 236.754 126.835 236.764 126.958C236.773 127.082 236.807 127.202 236.864 127.313C236.92 127.423 236.998 127.521 237.093 127.601C237.188 127.682 237.297 127.742 237.415 127.78C237.534 127.817 237.658 127.831 237.782 127.82C237.905 127.809 238.025 127.773 238.135 127.716C238.245 127.658 238.342 127.579 238.421 127.483ZM223.036 103.516C217.624 104.675 211.862 106.943 206.329 110.137C192.639 118.042 183.708 129.697 184.948 138.148C184.965 138.271 185.006 138.39 185.068 138.497C185.131 138.604 185.214 138.697 185.314 138.772C185.413 138.847 185.526 138.901 185.646 138.932C185.766 138.962 185.891 138.969 186.014 138.951C186.137 138.933 186.255 138.891 186.361 138.827C186.467 138.763 186.56 138.678 186.633 138.578C186.707 138.478 186.76 138.365 186.789 138.244C186.818 138.123 186.823 137.998 186.804 137.876C185.702 130.372 194.168 119.324 207.267 111.761C212.634 108.662 218.213 106.467 223.429 105.349C223.551 105.325 223.667 105.277 223.77 105.208C223.874 105.138 223.962 105.049 224.031 104.945C224.099 104.841 224.146 104.725 224.169 104.602C224.192 104.48 224.191 104.354 224.165 104.233C224.138 104.111 224.088 103.996 224.017 103.894C223.946 103.792 223.856 103.705 223.751 103.638C223.646 103.571 223.528 103.526 223.406 103.505C223.283 103.484 223.158 103.488 223.036 103.516V103.516Z" fill="#9FEAF9"/>
<path d="M200.857 144.007C203.987 152.747 209.107 158.128 214.865 158.128C219.065 158.128 222.95 155.265 225.98 150.226C226.045 150.12 226.089 150.003 226.109 149.88C226.129 149.757 226.124 149.632 226.095 149.511C226.065 149.39 226.013 149.276 225.939 149.176C225.866 149.076 225.773 148.991 225.666 148.927C225.56 148.863 225.442 148.821 225.319 148.803C225.196 148.785 225.07 148.792 224.95 148.823C224.83 148.854 224.717 148.908 224.617 148.983C224.518 149.058 224.435 149.152 224.373 149.26C221.65 153.789 218.305 156.253 214.865 156.253C210.082 156.253 205.515 151.453 202.622 143.375C202.583 143.257 202.52 143.148 202.437 143.054C202.355 142.96 202.255 142.884 202.143 142.829C202.03 142.775 201.908 142.743 201.784 142.737C201.659 142.73 201.535 142.748 201.417 142.79C201.3 142.832 201.192 142.897 201.1 142.982C201.008 143.066 200.934 143.168 200.881 143.281C200.829 143.394 200.8 143.517 200.796 143.641C200.792 143.766 200.813 143.89 200.857 144.007H200.857ZM229.446 142.297C231.067 137.119 231.937 131.146 231.937 124.922C231.937 109.39 226.501 96.0014 218.758 92.5635C218.532 92.4687 218.278 92.4664 218.05 92.5569C217.822 92.6474 217.639 92.8237 217.539 93.0478C217.44 93.2719 217.432 93.5261 217.517 93.7559C217.603 93.9857 217.775 94.1727 217.997 94.277C224.903 97.3437 230.062 110.05 230.062 124.922C230.062 130.961 229.219 136.745 227.657 141.737C227.619 141.855 227.604 141.98 227.613 142.104C227.623 142.228 227.657 142.348 227.714 142.459C227.771 142.569 227.849 142.667 227.944 142.747C228.039 142.827 228.149 142.888 228.268 142.925C228.387 142.962 228.511 142.975 228.635 142.964C228.759 142.952 228.879 142.916 228.989 142.858C229.098 142.799 229.195 142.72 229.274 142.623C229.353 142.527 229.411 142.416 229.447 142.297H229.446ZM247.103 141.379C247.103 138.901 245.094 136.892 242.616 136.892C240.138 136.892 238.129 138.901 238.129 141.379C238.129 143.857 240.138 145.866 242.616 145.866C245.094 145.866 247.103 143.857 247.103 141.379ZM245.228 141.379C245.228 141.722 245.161 142.062 245.03 142.379C244.898 142.695 244.706 142.983 244.463 143.226C244.221 143.469 243.933 143.661 243.616 143.792C243.299 143.924 242.959 143.991 242.616 143.991C242.273 143.991 241.934 143.924 241.617 143.792C241.3 143.661 241.012 143.469 240.769 143.226C240.527 142.983 240.334 142.695 240.203 142.379C240.072 142.062 240.004 141.722 240.004 141.379C240.004 140.686 240.279 140.022 240.769 139.532C241.259 139.042 241.924 138.767 242.616 138.767C243.309 138.767 243.973 139.042 244.463 139.532C244.953 140.022 245.228 140.686 245.228 141.379ZM187.05 145.866C189.528 145.866 191.537 143.857 191.537 141.379C191.537 138.901 189.528 136.892 187.05 136.892C184.572 136.892 182.563 138.901 182.563 141.379C182.563 143.857 184.572 145.866 187.05 145.866ZM187.05 143.991C186.357 143.991 185.693 143.716 185.203 143.226C184.713 142.736 184.438 142.072 184.438 141.379C184.438 140.686 184.713 140.022 185.203 139.532C185.693 139.042 186.357 138.767 187.05 138.767C187.743 138.767 188.407 139.042 188.897 139.532C189.387 140.022 189.662 140.686 189.662 141.379C189.662 142.072 189.387 142.736 188.897 143.226C188.407 143.716 187.743 143.991 187.05 143.991V143.991Z" fill="#9FEAF9"/>
<path d="M214.865 97.1405C217.344 97.1405 219.352 95.1316 219.352 92.6535C219.352 90.1753 217.344 88.1665 214.865 88.1665C212.387 88.1665 210.378 90.1753 210.378 92.6535C210.378 95.1316 212.387 97.1405 214.865 97.1405V97.1405ZM214.865 95.2656C214.173 95.2656 213.508 94.9904 213.018 94.5005C212.528 94.0106 212.253 93.3462 212.253 92.6535C212.253 91.9607 212.528 91.2963 213.018 90.8064C213.508 90.3166 214.173 90.0414 214.865 90.0414C215.558 90.0414 216.223 90.3166 216.712 90.8064C217.202 91.2963 217.477 91.9607 217.477 92.6535C217.477 93.3462 217.202 94.0106 216.712 94.5005C216.223 94.9904 215.558 95.2656 214.865 95.2656V95.2656ZM215.551 128.095C213.798 128.474 212.071 127.36 211.692 125.608C211.511 124.766 211.671 123.887 212.137 123.163C212.604 122.439 213.338 121.931 214.18 121.749C215.932 121.37 217.659 122.484 218.039 124.236C218.417 125.989 217.303 127.716 215.551 128.095Z" fill="#9FEAF9"/>
</g>
<path d="M439.998 184.2V197H437.935L431.904 188.281H431.798V197H429.479V184.2H431.554L437.579 192.925H437.691V184.2H439.998ZM446.612 197.188C445.674 197.188 444.862 196.981 444.174 196.569C443.487 196.156 442.953 195.579 442.574 194.837C442.199 194.096 442.012 193.229 442.012 192.237C442.012 191.246 442.199 190.377 442.574 189.631C442.953 188.885 443.487 188.306 444.174 187.894C444.862 187.481 445.674 187.275 446.612 187.275C447.549 187.275 448.362 187.481 449.049 187.894C449.737 188.306 450.268 188.885 450.643 189.631C451.022 190.377 451.212 191.246 451.212 192.237C451.212 193.229 451.022 194.096 450.643 194.837C450.268 195.579 449.737 196.156 449.049 196.569C448.362 196.981 447.549 197.188 446.612 197.188ZM446.624 195.375C447.133 195.375 447.558 195.235 447.899 194.956C448.241 194.673 448.495 194.294 448.662 193.819C448.833 193.344 448.918 192.815 448.918 192.231C448.918 191.644 448.833 191.112 448.662 190.637C448.495 190.158 448.241 189.777 447.899 189.494C447.558 189.21 447.133 189.069 446.624 189.069C446.103 189.069 445.67 189.21 445.324 189.494C444.983 189.777 444.726 190.158 444.555 190.637C444.389 191.112 444.305 191.644 444.305 192.231C444.305 192.815 444.389 193.344 444.555 193.819C444.726 194.294 444.983 194.673 445.324 194.956C445.67 195.235 446.103 195.375 446.624 195.375ZM456.695 197.169C455.94 197.169 455.265 196.975 454.67 196.587C454.074 196.2 453.603 195.637 453.257 194.9C452.911 194.162 452.738 193.267 452.738 192.212C452.738 191.146 452.913 190.246 453.263 189.512C453.617 188.775 454.095 188.219 454.695 187.844C455.295 187.465 455.963 187.275 456.701 187.275C457.263 187.275 457.726 187.371 458.088 187.562C458.451 187.75 458.738 187.977 458.951 188.244C459.163 188.506 459.328 188.754 459.445 188.987H459.538V184.2H461.807V197H459.582V195.487H459.445C459.328 195.721 459.159 195.969 458.938 196.231C458.717 196.49 458.426 196.71 458.063 196.894C457.701 197.077 457.245 197.169 456.695 197.169ZM457.326 195.312C457.805 195.312 458.213 195.183 458.551 194.925C458.888 194.662 459.145 194.298 459.32 193.831C459.495 193.365 459.582 192.821 459.582 192.2C459.582 191.579 459.495 191.04 459.32 190.581C459.149 190.123 458.895 189.767 458.557 189.512C458.224 189.258 457.813 189.131 457.326 189.131C456.822 189.131 456.401 189.262 456.063 189.525C455.726 189.787 455.472 190.15 455.301 190.612C455.13 191.075 455.045 191.604 455.045 192.2C455.045 192.8 455.13 193.335 455.301 193.806C455.476 194.273 455.732 194.642 456.07 194.912C456.411 195.179 456.83 195.312 457.326 195.312ZM468.468 197.188C467.505 197.188 466.674 196.988 465.974 196.587C465.278 196.183 464.743 195.612 464.368 194.875C463.993 194.133 463.805 193.26 463.805 192.256C463.805 191.269 463.993 190.402 464.368 189.656C464.747 188.906 465.276 188.323 465.955 187.906C466.635 187.485 467.433 187.275 468.349 187.275C468.941 187.275 469.499 187.371 470.024 187.562C470.553 187.75 471.02 188.042 471.424 188.437C471.833 188.833 472.153 189.337 472.387 189.95C472.62 190.558 472.737 191.283 472.737 192.125V192.819H464.868V191.294H470.568C470.564 190.86 470.47 190.475 470.287 190.137C470.103 189.796 469.847 189.527 469.518 189.331C469.193 189.135 468.814 189.037 468.38 189.037C467.918 189.037 467.512 189.15 467.162 189.375C466.812 189.596 466.539 189.887 466.343 190.25C466.151 190.608 466.053 191.002 466.049 191.431V192.762C466.049 193.321 466.151 193.8 466.355 194.2C466.56 194.596 466.845 194.9 467.212 195.112C467.578 195.321 468.008 195.425 468.499 195.425C468.828 195.425 469.126 195.379 469.393 195.287C469.66 195.192 469.891 195.052 470.087 194.869C470.283 194.685 470.43 194.458 470.53 194.187L472.643 194.425C472.51 194.983 472.255 195.471 471.88 195.887C471.51 196.3 471.035 196.621 470.455 196.85C469.876 197.075 469.214 197.188 468.468 197.188ZM479.801 184.2H482.101V193.2C482.097 194.025 481.922 194.735 481.576 195.331C481.23 195.923 480.747 196.379 480.126 196.7C479.509 197.017 478.79 197.175 477.97 197.175C477.22 197.175 476.545 197.042 475.945 196.775C475.349 196.504 474.876 196.104 474.526 195.575C474.176 195.046 474.001 194.387 474.001 193.6H476.307C476.311 193.946 476.386 194.244 476.532 194.494C476.682 194.744 476.888 194.935 477.151 195.069C477.413 195.202 477.715 195.269 478.057 195.269C478.428 195.269 478.742 195.192 479.001 195.037C479.259 194.879 479.455 194.646 479.588 194.337C479.726 194.029 479.797 193.65 479.801 193.2V184.2ZM491.573 187.719C491.514 187.173 491.268 186.748 490.835 186.444C490.406 186.14 489.848 185.987 489.16 185.987C488.677 185.987 488.262 186.06 487.916 186.206C487.571 186.352 487.306 186.55 487.123 186.8C486.939 187.05 486.846 187.335 486.841 187.656C486.841 187.923 486.902 188.154 487.023 188.35C487.148 188.546 487.316 188.712 487.529 188.85C487.741 188.983 487.977 189.096 488.235 189.187C488.493 189.279 488.754 189.356 489.016 189.419L490.216 189.719C490.7 189.831 491.164 189.983 491.61 190.175C492.06 190.367 492.462 190.608 492.816 190.9C493.175 191.192 493.458 191.544 493.666 191.956C493.875 192.369 493.979 192.852 493.979 193.406C493.979 194.156 493.787 194.817 493.404 195.387C493.021 195.954 492.466 196.398 491.741 196.719C491.021 197.035 490.148 197.194 489.123 197.194C488.127 197.194 487.262 197.04 486.529 196.731C485.8 196.423 485.229 195.973 484.816 195.381C484.408 194.79 484.187 194.069 484.154 193.219H486.435C486.468 193.665 486.606 194.035 486.848 194.331C487.089 194.627 487.404 194.848 487.791 194.994C488.183 195.14 488.621 195.212 489.104 195.212C489.608 195.212 490.05 195.137 490.429 194.987C490.812 194.833 491.112 194.621 491.329 194.35C491.546 194.075 491.656 193.754 491.66 193.387C491.656 193.054 491.558 192.779 491.366 192.562C491.175 192.342 490.906 192.158 490.56 192.012C490.218 191.862 489.818 191.729 489.36 191.612L487.904 191.237C486.85 190.967 486.016 190.556 485.404 190.006C484.796 189.452 484.491 188.717 484.491 187.8C484.491 187.046 484.696 186.385 485.104 185.819C485.516 185.252 486.077 184.812 486.785 184.5C487.493 184.183 488.296 184.025 489.191 184.025C490.1 184.025 490.896 184.183 491.579 184.5C492.266 184.812 492.806 185.248 493.198 185.806C493.589 186.36 493.791 186.998 493.804 187.719H491.573Z" fill="black"/>
<path d="M496.385 135.777C496.181 135.777 495.978 135.723 495.8 135.619L493.936 134.517C493.658 134.361 493.794 134.306 493.886 134.274C494.257 134.145 494.332 134.114 494.728 133.891C494.77 133.868 494.824 133.876 494.867 133.901L496.298 134.751C496.35 134.78 496.423 134.78 496.471 134.751L502.051 131.53C502.104 131.501 502.137 131.441 502.137 131.379V124.939C502.137 124.875 502.104 124.817 502.051 124.785L496.472 121.566C496.42 121.537 496.352 121.537 496.3 121.566L490.722 124.785C490.668 124.817 490.634 124.878 490.634 124.939V131.379C490.634 131.441 490.668 131.5 490.722 131.528L492.25 132.412C493.08 132.826 493.588 132.338 493.588 131.848V125.488C493.588 125.399 493.661 125.328 493.75 125.328H494.458C494.546 125.328 494.619 125.399 494.619 125.488V131.848C494.619 132.954 494.017 133.589 492.967 133.589C492.644 133.589 492.39 133.589 491.682 133.24L490.218 132.398C489.856 132.189 489.633 131.798 489.633 131.38V124.939C489.633 124.521 489.856 124.131 490.218 123.923L495.799 120.697C496.152 120.498 496.621 120.498 496.971 120.697L502.552 123.923C502.913 124.131 503.138 124.522 503.138 124.939V131.38C503.138 131.798 502.913 132.187 502.552 132.398L496.971 135.62C496.794 135.723 496.592 135.777 496.385 135.777M498.11 131.339C495.666 131.339 495.155 130.218 495.155 129.278C495.155 129.189 495.227 129.117 495.317 129.117H496.038C496.119 129.117 496.186 129.174 496.198 129.253C496.307 129.988 496.632 130.358 498.11 130.358C499.284 130.358 499.785 130.093 499.785 129.468C499.785 129.108 499.643 128.842 497.816 128.662C496.289 128.511 495.345 128.174 495.345 126.952C495.345 125.826 496.294 125.154 497.885 125.154C499.673 125.154 500.557 125.775 500.669 127.106C500.673 127.151 500.657 127.196 500.627 127.23C500.596 127.262 500.554 127.281 500.509 127.281H499.784C499.708 127.281 499.642 127.229 499.627 127.156C499.453 126.382 499.031 126.135 497.884 126.135C496.601 126.135 496.452 126.583 496.452 126.917C496.452 127.323 496.627 127.441 498.361 127.67C500.075 127.897 500.89 128.218 500.89 129.424C500.891 130.642 499.877 131.339 498.11 131.339" fill="#83CD29"/>
<path d="M484.894 127.115C485.114 126.986 485.249 126.751 485.249 126.496V124.841C485.249 124.586 485.114 124.352 484.894 124.223L479.013 120.809C478.791 120.68 478.518 120.679 478.296 120.807L472.379 124.224C472.158 124.352 472.021 124.587 472.021 124.842V131.674C472.021 131.931 472.159 132.168 472.383 132.295L478.263 135.646C478.48 135.77 478.745 135.771 478.964 135.65L482.521 133.673C482.634 133.61 482.704 133.491 482.705 133.364C482.705 133.234 482.637 133.115 482.525 133.051L476.571 129.633C476.459 129.569 476.391 129.451 476.391 129.324V127.182C476.391 127.054 476.459 126.937 476.569 126.874L478.423 125.805C478.533 125.741 478.67 125.741 478.78 125.805L480.634 126.874C480.745 126.938 480.813 127.055 480.813 127.182V128.867C480.813 128.996 480.882 129.114 480.992 129.177C481.103 129.241 481.239 129.241 481.351 129.176L484.894 127.115" fill="#404137"/>
<path d="M478.567 126.794C478.61 126.77 478.662 126.77 478.704 126.794L479.84 127.45C479.882 127.475 479.908 127.521 479.908 127.569V128.88C479.908 128.93 479.882 128.975 479.84 128.999L478.704 129.655C478.662 129.679 478.609 129.679 478.567 129.655L477.432 128.999C477.389 128.975 477.363 128.93 477.363 128.88V127.569C477.363 127.521 477.389 127.475 477.432 127.45L478.567 126.794Z" fill="#83CD29"/>
<path d="M463.168 129.522C463.168 129.586 463.134 129.645 463.078 129.677L461.046 130.848C460.991 130.881 460.923 130.881 460.868 130.848L458.836 129.677C458.78 129.645 458.746 129.586 458.746 129.522V127.175C458.746 127.112 458.781 127.052 458.836 127.02L460.868 125.847C460.923 125.814 460.992 125.814 461.047 125.847L463.08 127.02C463.135 127.052 463.168 127.112 463.168 127.175V129.522H463.168ZM463.717 112.144C463.606 112.083 463.471 112.084 463.362 112.148C463.253 112.213 463.185 112.33 463.185 112.456V121.537C463.185 121.626 463.137 121.709 463.061 121.754C462.984 121.798 462.888 121.798 462.811 121.754L461.328 120.899C461.108 120.772 460.835 120.772 460.615 120.899L454.696 124.315C454.474 124.443 454.338 124.679 454.338 124.934V131.768C454.338 132.023 454.474 132.259 454.695 132.388L460.614 135.805C460.835 135.933 461.108 135.933 461.329 135.805L467.249 132.388C467.47 132.259 467.607 132.023 467.607 131.768V114.734C467.607 114.475 467.466 114.236 467.24 114.109L463.717 112.144" fill="#404137"/>
<path d="M442.886 120.771C443.107 120.643 443.38 120.643 443.6 120.771L449.519 124.186C449.74 124.314 449.877 124.55 449.877 124.805V131.641C449.877 131.896 449.74 132.132 449.519 132.26L443.601 135.678C443.38 135.805 443.108 135.805 442.886 135.678L436.969 132.26C436.749 132.132 436.612 131.896 436.612 131.641V124.804C436.612 124.55 436.749 124.314 436.969 124.186L442.886 120.771" fill="#83CD29"/>
<path d="M432.123 124.748C432.123 124.491 431.988 124.255 431.765 124.127L425.849 120.722C425.747 120.663 425.636 120.633 425.522 120.629H425.461C425.349 120.633 425.236 120.663 425.135 120.722L419.218 124.127C418.997 124.255 418.86 124.491 418.86 124.748L418.872 133.917C418.872 134.045 418.939 134.164 419.051 134.226C419.161 134.292 419.296 134.292 419.406 134.226L422.922 132.212C423.144 132.08 423.279 131.847 423.279 131.592V127.308C423.279 127.052 423.414 126.817 423.636 126.689L425.134 125.827C425.245 125.761 425.367 125.73 425.491 125.73C425.613 125.73 425.738 125.761 425.847 125.827L427.344 126.689C427.565 126.817 427.701 127.052 427.701 127.308V131.592C427.701 131.847 427.839 132.081 428.059 132.212L431.575 134.226C431.685 134.292 431.823 134.292 431.932 134.226C432.041 134.163 432.109 134.044 432.109 133.917L432.123 124.748Z" fill="#404137"/>
<path d="M335.256 187.287C335.152 186.95 335.008 186.648 334.825 186.381C334.646 186.11 334.429 185.879 334.175 185.687C333.925 185.496 333.637 185.352 333.312 185.256C332.987 185.156 332.633 185.106 332.25 185.106C331.562 185.106 330.95 185.279 330.412 185.625C329.875 185.971 329.452 186.479 329.144 187.15C328.84 187.817 328.687 188.629 328.687 189.587C328.687 190.554 328.84 191.373 329.144 192.044C329.448 192.715 329.871 193.225 330.412 193.575C330.954 193.921 331.583 194.094 332.3 194.094C332.95 194.094 333.512 193.969 333.987 193.719C334.467 193.469 334.835 193.115 335.094 192.656C335.352 192.194 335.481 191.652 335.481 191.031L336.006 191.112H332.531V189.3H337.725V190.837C337.725 191.933 337.492 192.881 337.025 193.681C336.558 194.481 335.917 195.098 335.1 195.531C334.283 195.96 333.346 196.175 332.287 196.175C331.108 196.175 330.073 195.91 329.181 195.381C328.294 194.848 327.6 194.092 327.1 193.112C326.604 192.129 326.356 190.962 326.356 189.612C326.356 188.579 326.502 187.656 326.794 186.844C327.09 186.031 327.502 185.342 328.031 184.775C328.56 184.204 329.181 183.771 329.894 183.475C330.606 183.175 331.381 183.025 332.219 183.025C332.927 183.025 333.587 183.129 334.2 183.337C334.812 183.542 335.356 183.833 335.831 184.212C336.31 184.592 336.704 185.042 337.012 185.562C337.321 186.083 337.523 186.658 337.619 187.287H335.256ZM340.469 196V186.4H342.731V196H340.469ZM341.606 185.037C341.248 185.037 340.94 184.919 340.681 184.681C340.423 184.44 340.294 184.15 340.294 183.812C340.294 183.471 340.423 183.181 340.681 182.944C340.94 182.702 341.248 182.581 341.606 182.581C341.969 182.581 342.277 182.702 342.531 182.944C342.79 183.181 342.919 183.471 342.919 183.812C342.919 184.15 342.79 184.44 342.531 184.681C342.277 184.919 341.969 185.037 341.606 185.037ZM349.852 186.4V188.15H344.333V186.4H349.852ZM345.695 184.1H347.958V193.112C347.958 193.417 348.004 193.65 348.095 193.812C348.191 193.971 348.316 194.079 348.47 194.137C348.624 194.196 348.795 194.225 348.983 194.225C349.124 194.225 349.254 194.215 349.37 194.194C349.491 194.173 349.583 194.154 349.645 194.137L350.027 195.906C349.906 195.948 349.733 195.994 349.508 196.044C349.287 196.094 349.016 196.123 348.695 196.131C348.129 196.148 347.618 196.062 347.164 195.875C346.71 195.683 346.349 195.387 346.083 194.987C345.82 194.587 345.691 194.087 345.695 193.487V184.1Z" fill="black"/>
<g clip-path="url(#clip2_1_181)">
<path d="M381.301 118.992L342.008 79.6988C341.47 79.1605 340.831 78.7334 340.128 78.4421C339.425 78.1507 338.671 78.0008 337.91 78.0008C337.149 78.0008 336.395 78.1507 335.692 78.4421C334.989 78.7334 334.35 79.1605 333.812 79.6988L325.656 87.855L336.006 98.205C338.413 97.3613 341.17 97.9378 343.088 99.8559C344.001 100.771 344.638 101.924 344.927 103.183C345.216 104.443 345.145 105.759 344.722 106.98L354.698 116.956C357.111 116.123 359.895 116.661 361.822 118.593C362.462 119.233 362.97 119.994 363.317 120.831C363.663 121.668 363.842 122.565 363.842 123.471C363.841 124.377 363.663 125.273 363.316 126.11C362.969 126.947 362.461 127.708 361.82 128.348C361.18 128.988 360.419 129.496 359.582 129.843C358.745 130.189 357.848 130.368 356.943 130.368C356.037 130.368 355.14 130.189 354.303 129.842C353.466 129.495 352.706 128.987 352.065 128.347C350.04 126.322 349.54 123.34 350.563 120.846L341.26 111.542V136.025C341.935 136.359 342.552 136.8 343.088 137.33C343.728 137.97 344.236 138.73 344.583 139.567C344.929 140.404 345.108 141.301 345.108 142.207C345.108 143.112 344.929 144.009 344.583 144.846C344.236 145.683 343.728 146.443 343.088 147.083C342.447 147.724 341.687 148.232 340.85 148.579C340.014 148.925 339.117 149.104 338.211 149.104C337.305 149.104 336.408 148.925 335.572 148.579C334.735 148.232 333.975 147.724 333.334 147.083C332.693 146.443 332.184 145.683 331.837 144.846C331.49 144.01 331.311 143.113 331.311 142.207C331.311 141.301 331.49 140.404 331.837 139.567C332.184 138.73 332.693 137.97 333.334 137.33C334.001 136.666 334.74 136.163 335.593 135.825V111.114C334.771 110.777 334.001 110.279 333.334 109.61C332.366 108.642 331.707 107.409 331.443 106.066C331.178 104.723 331.32 103.332 331.849 102.069L321.64 91.8656L294.696 118.781C294.157 119.319 293.73 119.958 293.438 120.662C293.147 121.365 292.997 122.119 292.997 122.88C292.997 123.642 293.147 124.396 293.438 125.099C293.73 125.803 294.157 126.442 294.696 126.98L333.992 166.27C334.53 166.809 335.169 167.236 335.872 167.527C336.575 167.818 337.329 167.968 338.09 167.968C338.851 167.968 339.605 167.818 340.308 167.527C341.011 167.236 341.65 166.809 342.188 166.27L381.301 127.219C381.84 126.681 382.267 126.042 382.559 125.338C382.851 124.635 383.001 123.881 383.001 123.12C383.001 122.358 382.851 121.604 382.559 120.901C382.267 120.197 381.84 119.558 381.301 119.02" fill="#F03C2E"/>
</g>
<path d="M564.699 197V184.2H569.599C570.524 184.2 571.293 184.346 571.905 184.637C572.522 184.925 572.983 185.319 573.287 185.819C573.595 186.319 573.749 186.885 573.749 187.519C573.749 188.04 573.649 188.485 573.449 188.856C573.249 189.223 572.98 189.521 572.643 189.75C572.305 189.979 571.928 190.144 571.512 190.244V190.369C571.966 190.394 572.401 190.533 572.818 190.787C573.239 191.037 573.583 191.392 573.849 191.85C574.116 192.308 574.249 192.862 574.249 193.512C574.249 194.175 574.089 194.771 573.768 195.3C573.447 195.825 572.964 196.24 572.318 196.544C571.672 196.848 570.86 197 569.88 197H564.699ZM567.018 195.062H569.512C570.353 195.062 570.96 194.902 571.33 194.581C571.705 194.256 571.893 193.84 571.893 193.331C571.893 192.952 571.799 192.61 571.612 192.306C571.424 191.998 571.158 191.756 570.812 191.581C570.466 191.402 570.053 191.312 569.574 191.312H567.018V195.062ZM567.018 189.644H569.312C569.712 189.644 570.072 189.571 570.393 189.425C570.714 189.275 570.966 189.065 571.149 188.794C571.337 188.519 571.43 188.194 571.43 187.819C571.43 187.323 571.255 186.915 570.905 186.594C570.56 186.273 570.045 186.112 569.362 186.112H567.018V189.644ZM578.929 197.194C578.321 197.194 577.773 197.085 577.285 196.869C576.802 196.648 576.418 196.323 576.135 195.894C575.856 195.465 575.716 194.935 575.716 194.306C575.716 193.765 575.816 193.317 576.016 192.962C576.216 192.608 576.489 192.325 576.835 192.112C577.181 191.9 577.571 191.74 578.004 191.631C578.441 191.519 578.893 191.437 579.36 191.387C579.923 191.329 580.379 191.277 580.729 191.231C581.079 191.181 581.333 191.106 581.491 191.006C581.654 190.902 581.735 190.742 581.735 190.525V190.487C581.735 190.017 581.596 189.652 581.316 189.394C581.037 189.135 580.635 189.006 580.11 189.006C579.556 189.006 579.116 189.127 578.791 189.369C578.471 189.61 578.254 189.896 578.141 190.225L576.029 189.925C576.196 189.342 576.471 188.854 576.854 188.462C577.237 188.067 577.706 187.771 578.26 187.575C578.814 187.375 579.427 187.275 580.098 187.275C580.56 187.275 581.021 187.329 581.479 187.437C581.937 187.546 582.356 187.725 582.735 187.975C583.114 188.221 583.418 188.556 583.648 188.981C583.881 189.406 583.998 189.937 583.998 190.575V197H581.823V195.681H581.748C581.61 195.948 581.416 196.198 581.166 196.431C580.921 196.66 580.61 196.846 580.235 196.987C579.864 197.125 579.429 197.194 578.929 197.194ZM579.516 195.531C579.971 195.531 580.364 195.442 580.698 195.262C581.031 195.079 581.287 194.837 581.466 194.537C581.65 194.237 581.741 193.91 581.741 193.556V192.425C581.671 192.483 581.55 192.537 581.379 192.587C581.212 192.637 581.025 192.681 580.816 192.719C580.608 192.756 580.402 192.79 580.198 192.819C579.993 192.848 579.816 192.873 579.666 192.894C579.329 192.94 579.027 193.015 578.76 193.119C578.493 193.223 578.283 193.369 578.129 193.556C577.975 193.74 577.898 193.977 577.898 194.269C577.898 194.685 578.05 195 578.354 195.212C578.658 195.425 579.046 195.531 579.516 195.531ZM593.86 189.937L591.798 190.162C591.739 189.954 591.637 189.758 591.491 189.575C591.35 189.392 591.158 189.244 590.916 189.131C590.675 189.019 590.379 188.962 590.029 188.962C589.558 188.962 589.162 189.065 588.841 189.269C588.525 189.473 588.368 189.737 588.373 190.062C588.368 190.342 588.471 190.569 588.679 190.744C588.891 190.919 589.241 191.062 589.729 191.175L591.366 191.525C592.275 191.721 592.95 192.031 593.391 192.456C593.837 192.881 594.062 193.437 594.066 194.125C594.062 194.729 593.885 195.262 593.535 195.725C593.189 196.183 592.708 196.542 592.091 196.8C591.475 197.058 590.766 197.188 589.966 197.188C588.791 197.188 587.846 196.942 587.129 196.45C586.412 195.954 585.985 195.265 585.848 194.381L588.054 194.169C588.154 194.602 588.366 194.929 588.691 195.15C589.016 195.371 589.439 195.481 589.96 195.481C590.498 195.481 590.929 195.371 591.254 195.15C591.583 194.929 591.748 194.656 591.748 194.331C591.748 194.056 591.641 193.829 591.429 193.65C591.221 193.471 590.896 193.333 590.454 193.237L588.816 192.894C587.896 192.702 587.214 192.379 586.773 191.925C586.331 191.467 586.112 190.887 586.116 190.187C586.112 189.596 586.273 189.083 586.598 188.65C586.927 188.212 587.383 187.875 587.966 187.637C588.554 187.396 589.231 187.275 589.998 187.275C591.123 187.275 592.008 187.515 592.654 187.994C593.304 188.473 593.706 189.121 593.86 189.937ZM598.195 191.375V197H595.932V184.2H598.145V189.031H598.257C598.482 188.49 598.83 188.062 599.301 187.75C599.776 187.433 600.38 187.275 601.113 187.275C601.78 187.275 602.361 187.415 602.857 187.694C603.353 187.973 603.736 188.381 604.007 188.919C604.282 189.456 604.42 190.112 604.42 190.887V197H602.157V191.237C602.157 190.592 601.99 190.09 601.657 189.731C601.328 189.369 600.865 189.187 600.27 189.187C599.87 189.187 599.511 189.275 599.195 189.45C598.882 189.621 598.636 189.869 598.457 190.194C598.282 190.519 598.195 190.912 598.195 191.375Z" fill="black"/>
<g clip-path="url(#clip3_1_181)">
<path fill-rule="evenodd" clip-rule="evenodd" d="M607.114 107.06L586.904 95.064C585.73 94.3669 584.39 93.999 583.024 93.999C581.658 93.999 580.318 94.3669 579.144 95.064L558.93 107.06C557.729 107.777 556.735 108.794 556.045 110.012C555.356 111.229 554.996 112.605 555 114.004V137.996C554.993 139.392 555.348 140.765 556.031 141.983C556.714 143.2 557.701 144.219 558.896 144.94L579.106 156.936C580.28 157.633 581.62 158.001 582.986 158.001C584.352 158.001 585.692 157.633 586.866 156.936L607.08 144.94C608.275 144.219 609.262 143.2 609.945 141.983C610.628 140.765 610.983 139.392 610.976 137.996V114.004C610.987 112.612 610.637 111.24 609.961 110.023C609.285 108.806 608.304 107.785 607.116 107.06H607.114ZM591.46 144.524V146.244C591.458 146.46 591.346 146.658 591.164 146.774L590.14 147.36C589.98 147.444 589.844 147.36 589.844 147.134V145.44C589.121 145.795 588.294 145.876 587.516 145.666C587.392 145.582 587.344 145.422 587.404 145.266L587.77 143.706C587.802 143.574 587.87 143.456 587.974 143.366C588.003 143.337 588.037 143.313 588.074 143.296C588.125 143.276 588.183 143.276 588.234 143.296C588.948 143.488 589.708 143.391 590.352 143.028C590.809 142.805 591.197 142.462 591.476 142.036C591.754 141.61 591.911 141.116 591.932 140.608C591.932 139.732 591.452 139.368 590.292 139.358C588.824 139.358 587.492 139.078 587.432 136.91C587.466 135.036 588.336 133.276 589.804 132.11V130.366C589.802 130.166 589.916 129.966 590.1 129.83L591.088 129.202C591.248 129.118 591.384 129.202 591.384 129.434V131.178C591.989 130.903 592.665 130.822 593.318 130.946C593.458 131.026 593.514 131.202 593.446 131.346L593.1 132.892C593.07 133.012 593.01 133.118 592.924 133.202C592.896 133.232 592.864 133.258 592.824 133.282C592.784 133.306 592.724 133.298 592.676 133.282C592.039 133.143 591.373 133.251 590.814 133.586C590.406 133.762 590.057 134.05 589.807 134.418C589.556 134.785 589.416 135.216 589.402 135.66C589.402 136.45 589.818 136.69 591.216 136.72C593.086 136.72 593.89 137.566 593.912 139.444C593.876 141.41 592.978 143.26 591.456 144.504L591.46 144.524ZM602.046 141.624C602.07 141.772 602.01 141.924 601.89 142.012L596.8 145.116C596.752 145.156 596.68 145.162 596.626 145.13C596.572 145.098 596.546 145.03 596.56 144.97V143.65C596.566 143.506 596.66 143.378 596.792 143.326L601.824 140.312C601.872 140.272 601.944 140.266 601.998 140.298C602.052 140.33 602.078 140.398 602.064 140.458V141.622L602.046 141.624ZM605.576 112.12L586.452 123.932C584.066 125.344 582.312 126.888 582.312 129.76V153.316C582.312 155.036 583.018 156.116 584.076 156.476C583.726 156.541 583.372 156.577 583.016 156.582C581.893 156.58 580.791 156.275 579.826 155.7L559.616 143.706C557.6 142.5 556.404 140.33 556.412 138V114.004C556.4 111.668 557.6 109.5 559.616 108.288L579.826 96.292C581.786 95.132 584.218 95.132 586.178 96.292L606.388 108.288C608.054 109.296 609.188 110.988 609.492 112.888C608.836 111.462 607.326 111.088 605.568 112.098H605.574L605.576 112.12Z" fill="#1B1B1F"/>
</g>
<defs>
<clipPath id="clip0_1_181">
<rect width="90" height="80.1923" fill="white" transform="translate(47 83)"/>
</clipPath>
<clipPath id="clip1_1_181">
<rect width="90" height="90" fill="white" transform="translate(170 78)"/>
</clipPath>
<clipPath id="clip2_1_181">
<rect width="90" height="90" fill="white" transform="translate(293 78)"/>
</clipPath>
<clipPath id="clip3_1_181">
<rect width="64" height="64" fill="white" transform="translate(551 94)"/>
</clipPath>
</defs>
</svg>
